<mxfile host="65bd71144e" pages="2">
    <diagram id="7Fkj_M1Ov89pm0loDN_8" name="SkipList_Structure">
        <mxGraphModel dx="420" dy="262" grid="1" gridSize="10" guides="1" tooltips="1" connect="1" arrows="1" fold="1" page="1" pageScale="1" pageWidth="1654" pageHeight="2336" math="0" shadow="0">
            <root>
                <mxCell id="0"/>
                <mxCell id="1" parent="0"/>
                <mxCell id="zgUbbDwi3Y9D6a3XLcge-9" value="" style="edgeStyle=orthogonalEdgeStyle;rounded=0;orthogonalLoop=1;jettySize=auto;html=1;" parent="1" source="zgUbbDwi3Y9D6a3XLcge-1" target="zgUbbDwi3Y9D6a3XLcge-8" edge="1">
                    <mxGeometry relative="1" as="geometry"/>
                </mxCell>
                <mxCell id="zgUbbDwi3Y9D6a3XLcge-1" value="&lt;font style=&quot;font-size: 19px&quot;&gt;1&lt;/font&gt;" style="rounded=0;whiteSpace=wrap;html=1;" parent="1" vertex="1">
                    <mxGeometry x="490" y="460" width="60" height="60" as="geometry"/>
                </mxCell>
                <mxCell id="zgUbbDwi3Y9D6a3XLcge-11" value="" style="edgeStyle=orthogonalEdgeStyle;rounded=0;orthogonalLoop=1;jettySize=auto;html=1;" parent="1" source="zgUbbDwi3Y9D6a3XLcge-8" target="zgUbbDwi3Y9D6a3XLcge-10" edge="1">
                    <mxGeometry relative="1" as="geometry"/>
                </mxCell>
                <mxCell id="zgUbbDwi3Y9D6a3XLcge-8" value="&lt;font style=&quot;font-size: 19px&quot;&gt;2&lt;/font&gt;" style="rounded=0;whiteSpace=wrap;html=1;" parent="1" vertex="1">
                    <mxGeometry x="630" y="460" width="60" height="60" as="geometry"/>
                </mxCell>
                <mxCell id="zgUbbDwi3Y9D6a3XLcge-15" value="" style="edgeStyle=orthogonalEdgeStyle;rounded=0;orthogonalLoop=1;jettySize=auto;html=1;" parent="1" source="zgUbbDwi3Y9D6a3XLcge-10" target="zgUbbDwi3Y9D6a3XLcge-14" edge="1">
                    <mxGeometry relative="1" as="geometry"/>
                </mxCell>
                <mxCell id="zgUbbDwi3Y9D6a3XLcge-10" value="&lt;font style=&quot;font-size: 19px&quot;&gt;3&lt;/font&gt;" style="rounded=0;whiteSpace=wrap;html=1;" parent="1" vertex="1">
                    <mxGeometry x="770" y="460" width="60" height="60" as="geometry"/>
                </mxCell>
                <mxCell id="zgUbbDwi3Y9D6a3XLcge-17" value="" style="edgeStyle=orthogonalEdgeStyle;rounded=0;orthogonalLoop=1;jettySize=auto;html=1;" parent="1" source="zgUbbDwi3Y9D6a3XLcge-14" target="zgUbbDwi3Y9D6a3XLcge-16" edge="1">
                    <mxGeometry relative="1" as="geometry"/>
                </mxCell>
                <mxCell id="zgUbbDwi3Y9D6a3XLcge-14" value="&lt;font style=&quot;font-size: 19px&quot;&gt;4&lt;/font&gt;" style="rounded=0;whiteSpace=wrap;html=1;" parent="1" vertex="1">
                    <mxGeometry x="910" y="460" width="60" height="60" as="geometry"/>
                </mxCell>
                <mxCell id="zgUbbDwi3Y9D6a3XLcge-19" value="" style="edgeStyle=orthogonalEdgeStyle;rounded=0;orthogonalLoop=1;jettySize=auto;html=1;" parent="1" source="zgUbbDwi3Y9D6a3XLcge-16" target="zgUbbDwi3Y9D6a3XLcge-18" edge="1">
                    <mxGeometry relative="1" as="geometry"/>
                </mxCell>
                <mxCell id="zgUbbDwi3Y9D6a3XLcge-16" value="&lt;font style=&quot;font-size: 19px&quot;&gt;5&lt;/font&gt;" style="rounded=0;whiteSpace=wrap;html=1;" parent="1" vertex="1">
                    <mxGeometry x="1050" y="460" width="60" height="60" as="geometry"/>
                </mxCell>
                <mxCell id="zgUbbDwi3Y9D6a3XLcge-21" value="" style="edgeStyle=orthogonalEdgeStyle;rounded=0;orthogonalLoop=1;jettySize=auto;html=1;" parent="1" source="zgUbbDwi3Y9D6a3XLcge-18" target="zgUbbDwi3Y9D6a3XLcge-20" edge="1">
                    <mxGeometry relative="1" as="geometry"/>
                </mxCell>
                <mxCell id="zgUbbDwi3Y9D6a3XLcge-18" value="&lt;font style=&quot;font-size: 19px&quot;&gt;6&lt;/font&gt;" style="rounded=0;whiteSpace=wrap;html=1;" parent="1" vertex="1">
                    <mxGeometry x="1190" y="460" width="60" height="60" as="geometry"/>
                </mxCell>
                <mxCell id="zgUbbDwi3Y9D6a3XLcge-23" value="" style="edgeStyle=orthogonalEdgeStyle;rounded=0;orthogonalLoop=1;jettySize=auto;html=1;" parent="1" source="zgUbbDwi3Y9D6a3XLcge-20" target="zgUbbDwi3Y9D6a3XLcge-22" edge="1">
                    <mxGeometry relative="1" as="geometry"/>
                </mxCell>
                <mxCell id="zgUbbDwi3Y9D6a3XLcge-20" value="&lt;font style=&quot;font-size: 19px&quot;&gt;7&lt;/font&gt;" style="rounded=0;whiteSpace=wrap;html=1;" parent="1" vertex="1">
                    <mxGeometry x="1330" y="460" width="60" height="60" as="geometry"/>
                </mxCell>
                <mxCell id="zgUbbDwi3Y9D6a3XLcge-25" value="" style="edgeStyle=orthogonalEdgeStyle;rounded=0;orthogonalLoop=1;jettySize=auto;html=1;" parent="1" source="zgUbbDwi3Y9D6a3XLcge-22" target="zgUbbDwi3Y9D6a3XLcge-24" edge="1">
                    <mxGeometry relative="1" as="geometry"/>
                </mxCell>
                <mxCell id="zgUbbDwi3Y9D6a3XLcge-22" value="&lt;span style=&quot;font-size: 19px&quot;&gt;8&lt;/span&gt;" style="rounded=0;whiteSpace=wrap;html=1;" parent="1" vertex="1">
                    <mxGeometry x="1470" y="460" width="60" height="60" as="geometry"/>
                </mxCell>
                <mxCell id="zgUbbDwi3Y9D6a3XLcge-24" value="&lt;span style=&quot;font-size: 19px&quot;&gt;9&lt;/span&gt;" style="rounded=0;whiteSpace=wrap;html=1;" parent="1" vertex="1">
                    <mxGeometry x="1610" y="460" width="60" height="60" as="geometry"/>
                </mxCell>
                <mxCell id="zgUbbDwi3Y9D6a3XLcge-30" value="" style="edgeStyle=orthogonalEdgeStyle;rounded=0;orthogonalLoop=1;jettySize=auto;html=1;" parent="1" source="zgUbbDwi3Y9D6a3XLcge-31" target="zgUbbDwi3Y9D6a3XLcge-35" edge="1">
                    <mxGeometry relative="1" as="geometry">
                        <mxPoint x="630" y="350" as="targetPoint"/>
                    </mxGeometry>
                </mxCell>
                <mxCell id="zgUbbDwi3Y9D6a3XLcge-31" value="&lt;font style=&quot;font-size: 19px&quot;&gt;1&lt;/font&gt;" style="rounded=0;whiteSpace=wrap;html=1;" parent="1" vertex="1">
                    <mxGeometry x="490" y="320" width="60" height="60" as="geometry"/>
                </mxCell>
                <mxCell id="zgUbbDwi3Y9D6a3XLcge-34" value="" style="edgeStyle=orthogonalEdgeStyle;rounded=0;orthogonalLoop=1;jettySize=auto;html=1;" parent="1" source="zgUbbDwi3Y9D6a3XLcge-35" target="zgUbbDwi3Y9D6a3XLcge-39" edge="1">
                    <mxGeometry relative="1" as="geometry">
                        <mxPoint x="909.9999999999995" y="350" as="targetPoint"/>
                    </mxGeometry>
                </mxCell>
                <mxCell id="zgUbbDwi3Y9D6a3XLcge-35" value="&lt;font style=&quot;font-size: 19px&quot;&gt;3&lt;/font&gt;" style="rounded=0;whiteSpace=wrap;html=1;" parent="1" vertex="1">
                    <mxGeometry x="770" y="320" width="60" height="60" as="geometry"/>
                </mxCell>
                <mxCell id="zgUbbDwi3Y9D6a3XLcge-38" value="" style="edgeStyle=orthogonalEdgeStyle;rounded=0;orthogonalLoop=1;jettySize=auto;html=1;" parent="1" source="zgUbbDwi3Y9D6a3XLcge-39" target="zgUbbDwi3Y9D6a3XLcge-43" edge="1">
                    <mxGeometry relative="1" as="geometry">
                        <mxPoint x="1189.9999999999995" y="350" as="targetPoint"/>
                    </mxGeometry>
                </mxCell>
                <mxCell id="zgUbbDwi3Y9D6a3XLcge-39" value="&lt;font style=&quot;font-size: 19px&quot;&gt;5&lt;/font&gt;" style="rounded=0;whiteSpace=wrap;html=1;" parent="1" vertex="1">
                    <mxGeometry x="1050" y="320" width="60" height="60" as="geometry"/>
                </mxCell>
                <mxCell id="zgUbbDwi3Y9D6a3XLcge-42" value="" style="edgeStyle=orthogonalEdgeStyle;rounded=0;orthogonalLoop=1;jettySize=auto;html=1;" parent="1" source="zgUbbDwi3Y9D6a3XLcge-43" target="zgUbbDwi3Y9D6a3XLcge-47" edge="1">
                    <mxGeometry relative="1" as="geometry">
                        <mxPoint x="1469.9999999999995" y="350" as="targetPoint"/>
                    </mxGeometry>
                </mxCell>
                <mxCell id="zgUbbDwi3Y9D6a3XLcge-43" value="&lt;font style=&quot;font-size: 19px&quot;&gt;7&lt;/font&gt;" style="rounded=0;whiteSpace=wrap;html=1;" parent="1" vertex="1">
                    <mxGeometry x="1330" y="320" width="60" height="60" as="geometry"/>
                </mxCell>
                <mxCell id="zgUbbDwi3Y9D6a3XLcge-47" value="&lt;span style=&quot;font-size: 19px&quot;&gt;9&lt;/span&gt;" style="rounded=0;whiteSpace=wrap;html=1;" parent="1" vertex="1">
                    <mxGeometry x="1610" y="320" width="60" height="60" as="geometry"/>
                </mxCell>
                <mxCell id="zgUbbDwi3Y9D6a3XLcge-50" value="&lt;font style=&quot;font-size: 24px&quot;&gt;Level 0&lt;/font&gt;" style="text;html=1;strokeColor=none;fillColor=none;align=center;verticalAlign=middle;whiteSpace=wrap;rounded=0;" parent="1" vertex="1">
                    <mxGeometry x="360" y="490" width="80" height="20" as="geometry"/>
                </mxCell>
                <mxCell id="zgUbbDwi3Y9D6a3XLcge-51" value="&lt;font style=&quot;font-size: 24px&quot;&gt;Level 1&lt;/font&gt;" style="text;html=1;strokeColor=none;fillColor=none;align=center;verticalAlign=middle;whiteSpace=wrap;rounded=0;" parent="1" vertex="1">
                    <mxGeometry x="360" y="340" width="80" height="20" as="geometry"/>
                </mxCell>
                <mxCell id="zgUbbDwi3Y9D6a3XLcge-52" value="" style="edgeStyle=orthogonalEdgeStyle;rounded=0;orthogonalLoop=1;jettySize=auto;html=1;" parent="1" source="zgUbbDwi3Y9D6a3XLcge-53" target="zgUbbDwi3Y9D6a3XLcge-57" edge="1">
                    <mxGeometry relative="1" as="geometry">
                        <mxPoint x="769.9999999999995" y="210" as="targetPoint"/>
                    </mxGeometry>
                </mxCell>
                <mxCell id="zgUbbDwi3Y9D6a3XLcge-53" value="&lt;font style=&quot;font-size: 19px&quot;&gt;1&lt;/font&gt;" style="rounded=0;whiteSpace=wrap;html=1;" parent="1" vertex="1">
                    <mxGeometry x="490" y="180" width="60" height="60" as="geometry"/>
                </mxCell>
                <mxCell id="zgUbbDwi3Y9D6a3XLcge-56" value="" style="edgeStyle=orthogonalEdgeStyle;rounded=0;orthogonalLoop=1;jettySize=auto;html=1;" parent="1" source="zgUbbDwi3Y9D6a3XLcge-57" target="zgUbbDwi3Y9D6a3XLcge-60" edge="1">
                    <mxGeometry relative="1" as="geometry">
                        <mxPoint x="1329.9999999999995" y="210" as="targetPoint"/>
                    </mxGeometry>
                </mxCell>
                <mxCell id="zgUbbDwi3Y9D6a3XLcge-57" value="&lt;font style=&quot;font-size: 19px&quot;&gt;5&lt;/font&gt;" style="rounded=0;whiteSpace=wrap;html=1;" parent="1" vertex="1">
                    <mxGeometry x="1050" y="180" width="60" height="60" as="geometry"/>
                </mxCell>
                <mxCell id="zgUbbDwi3Y9D6a3XLcge-60" value="&lt;span style=&quot;font-size: 19px&quot;&gt;9&lt;/span&gt;" style="rounded=0;whiteSpace=wrap;html=1;" parent="1" vertex="1">
                    <mxGeometry x="1610" y="180" width="60" height="60" as="geometry"/>
                </mxCell>
                <mxCell id="zgUbbDwi3Y9D6a3XLcge-61" value="&lt;font style=&quot;font-size: 24px&quot;&gt;Level 2&lt;/font&gt;" style="text;html=1;strokeColor=none;fillColor=none;align=center;verticalAlign=middle;whiteSpace=wrap;rounded=0;" parent="1" vertex="1">
                    <mxGeometry x="360" y="200" width="80" height="20" as="geometry"/>
                </mxCell>
                <mxCell id="zgUbbDwi3Y9D6a3XLcge-62" value="&lt;font style=&quot;font-size: 24px&quot;&gt;Level 3&lt;/font&gt;" style="text;html=1;strokeColor=none;fillColor=none;align=center;verticalAlign=middle;whiteSpace=wrap;rounded=0;" parent="1" vertex="1">
                    <mxGeometry x="360" y="70" width="80" height="20" as="geometry"/>
                </mxCell>
                <mxCell id="zgUbbDwi3Y9D6a3XLcge-69" value="" style="edgeStyle=orthogonalEdgeStyle;rounded=0;orthogonalLoop=1;jettySize=auto;html=1;" parent="1" source="zgUbbDwi3Y9D6a3XLcge-70" target="zgUbbDwi3Y9D6a3XLcge-73" edge="1">
                    <mxGeometry relative="1" as="geometry">
                        <mxPoint x="1049.9999999999995" y="90" as="targetPoint"/>
                    </mxGeometry>
                </mxCell>
                <mxCell id="zgUbbDwi3Y9D6a3XLcge-70" value="&lt;font style=&quot;font-size: 19px&quot;&gt;1&lt;/font&gt;" style="rounded=0;whiteSpace=wrap;html=1;" parent="1" vertex="1">
                    <mxGeometry x="490" y="60" width="60" height="60" as="geometry"/>
                </mxCell>
                <mxCell id="zgUbbDwi3Y9D6a3XLcge-73" value="&lt;span style=&quot;font-size: 19px&quot;&gt;9&lt;/span&gt;" style="rounded=0;whiteSpace=wrap;html=1;" parent="1" vertex="1">
                    <mxGeometry x="1610" y="60" width="60" height="60" as="geometry"/>
                </mxCell>
                <mxCell id="zgUbbDwi3Y9D6a3XLcge-74" value="&lt;h1&gt;&lt;span style=&quot;font-size: 25px ; font-weight: normal&quot;&gt;The fast table&amp;nbsp;formed by adding a multi row index to&amp;nbsp; a common linked list is the key data structure of Redis SortedSet and LevelDB MemTable. Compared with the common linked list, the time complexity of its insert/delete/search operations can be O(log(n))&lt;/span&gt;&lt;/h1&gt;" style="text;html=1;strokeColor=none;fillColor=none;spacing=5;spacingTop=-20;whiteSpace=wrap;overflow=hidden;rounded=0;" parent="1" vertex="1">
                    <mxGeometry x="360" y="540" width="1330" height="110" as="geometry"/>
                </mxCell>
                <mxCell id="Hr5KSAseugsl0qGZsUtE-49" value="" style="ellipse;whiteSpace=wrap;html=1;aspect=fixed;" parent="1" vertex="1">
                    <mxGeometry x="730" y="800" width="430" height="430" as="geometry"/>
                </mxCell>
                <mxCell id="Hr5KSAseugsl0qGZsUtE-50" value="&lt;font style=&quot;font-size: 19px&quot;&gt;Key 1&lt;/font&gt;" style="rounded=0;whiteSpace=wrap;html=1;" parent="1" vertex="1">
                    <mxGeometry x="950" y="930" width="120" height="60" as="geometry"/>
                </mxCell>
                <mxCell id="Hr5KSAseugsl0qGZsUtE-51" value="&lt;font style=&quot;font-size: 19px&quot;&gt;Key 2&lt;/font&gt;" style="rounded=0;whiteSpace=wrap;html=1;" parent="1" vertex="1">
                    <mxGeometry x="870" y="840" width="120" height="60" as="geometry"/>
                </mxCell>
                <mxCell id="Hr5KSAseugsl0qGZsUtE-52" value="&lt;font style=&quot;font-size: 19px&quot;&gt;Key 3&lt;/font&gt;" style="rounded=0;whiteSpace=wrap;html=1;" parent="1" vertex="1">
                    <mxGeometry x="760" y="920" width="120" height="60" as="geometry"/>
                </mxCell>
                <mxCell id="Hr5KSAseugsl0qGZsUtE-53" value="&lt;font style=&quot;font-size: 19px&quot;&gt;Key 4&lt;/font&gt;" style="rounded=0;whiteSpace=wrap;html=1;" parent="1" vertex="1">
                    <mxGeometry x="970" y="1060" width="120" height="60" as="geometry"/>
                </mxCell>
                <mxCell id="Hr5KSAseugsl0qGZsUtE-56" value="" style="edgeStyle=orthogonalEdgeStyle;rounded=0;orthogonalLoop=1;jettySize=auto;html=1;entryX=0;entryY=0.5;entryDx=0;entryDy=0;" parent="1" source="Hr5KSAseugsl0qGZsUtE-57" target="Hr5KSAseugsl0qGZsUtE-60" edge="1">
                    <mxGeometry relative="1" as="geometry"/>
                </mxCell>
                <mxCell id="Hr5KSAseugsl0qGZsUtE-57" value="&lt;font style=&quot;font-size: 19px&quot;&gt;Key 1&lt;/font&gt;" style="rounded=0;whiteSpace=wrap;html=1;" parent="1" vertex="1">
                    <mxGeometry x="460" y="1350" width="120" height="60" as="geometry"/>
                </mxCell>
                <mxCell id="Hr5KSAseugsl0qGZsUtE-58" value="&lt;font style=&quot;font-size: 19px&quot;&gt;Value 1&lt;/font&gt;" style="rounded=0;whiteSpace=wrap;html=1;" parent="1" vertex="1">
                    <mxGeometry x="460" y="1410" width="120" height="60" as="geometry"/>
                </mxCell>
                <mxCell id="Hr5KSAseugsl0qGZsUtE-59" value="" style="edgeStyle=orthogonalEdgeStyle;rounded=0;orthogonalLoop=1;jettySize=auto;html=1;" parent="1" source="Hr5KSAseugsl0qGZsUtE-60" target="Hr5KSAseugsl0qGZsUtE-63" edge="1">
                    <mxGeometry relative="1" as="geometry"/>
                </mxCell>
                <mxCell id="Hr5KSAseugsl0qGZsUtE-60" value="&lt;font style=&quot;font-size: 19px&quot;&gt;Key 2&lt;/font&gt;" style="rounded=0;whiteSpace=wrap;html=1;" parent="1" vertex="1">
                    <mxGeometry x="740" y="1350" width="120" height="60" as="geometry"/>
                </mxCell>
                <mxCell id="Hr5KSAseugsl0qGZsUtE-61" value="&lt;font style=&quot;font-size: 19px&quot;&gt;Value 2&lt;/font&gt;" style="rounded=0;whiteSpace=wrap;html=1;" parent="1" vertex="1">
                    <mxGeometry x="740" y="1410" width="120" height="60" as="geometry"/>
                </mxCell>
                <mxCell id="Hr5KSAseugsl0qGZsUtE-62" value="" style="edgeStyle=orthogonalEdgeStyle;rounded=0;orthogonalLoop=1;jettySize=auto;html=1;entryX=0;entryY=0.5;entryDx=0;entryDy=0;" parent="1" source="Hr5KSAseugsl0qGZsUtE-63" target="Hr5KSAseugsl0qGZsUtE-65" edge="1">
                    <mxGeometry relative="1" as="geometry"/>
                </mxCell>
                <mxCell id="Hr5KSAseugsl0qGZsUtE-63" value="&lt;font style=&quot;font-size: 19px&quot;&gt;Key 3&lt;/font&gt;" style="rounded=0;whiteSpace=wrap;html=1;" parent="1" vertex="1">
                    <mxGeometry x="1000" y="1350" width="120" height="60" as="geometry"/>
                </mxCell>
                <mxCell id="Hr5KSAseugsl0qGZsUtE-64" value="&lt;font style=&quot;font-size: 19px&quot;&gt;Value 3&lt;/font&gt;" style="rounded=0;whiteSpace=wrap;html=1;" parent="1" vertex="1">
                    <mxGeometry x="1000" y="1410" width="120" height="60" as="geometry"/>
                </mxCell>
                <mxCell id="Hr5KSAseugsl0qGZsUtE-65" value="&lt;font style=&quot;font-size: 19px&quot;&gt;Key 4&lt;/font&gt;" style="rounded=0;whiteSpace=wrap;html=1;" parent="1" vertex="1">
                    <mxGeometry x="1270" y="1350" width="120" height="60" as="geometry"/>
                </mxCell>
                <mxCell id="Hr5KSAseugsl0qGZsUtE-66" value="&lt;font style=&quot;font-size: 19px&quot;&gt;Value 4&lt;/font&gt;" style="rounded=0;whiteSpace=wrap;html=1;" parent="1" vertex="1">
                    <mxGeometry x="1270" y="1410" width="120" height="60" as="geometry"/>
                </mxCell>
                <mxCell id="Hr5KSAseugsl0qGZsUtE-67" value="" style="edgeStyle=orthogonalEdgeStyle;rounded=0;orthogonalLoop=1;jettySize=auto;html=1;entryX=1;entryY=0.5;entryDx=0;entryDy=0;exitX=0;exitY=0.5;exitDx=0;exitDy=0;" parent="1" source="Hr5KSAseugsl0qGZsUtE-61" target="Hr5KSAseugsl0qGZsUtE-58" edge="1">
                    <mxGeometry relative="1" as="geometry">
                        <mxPoint x="720" y="1570" as="sourcePoint"/>
                        <mxPoint x="879.9999999999995" y="1570" as="targetPoint"/>
                    </mxGeometry>
                </mxCell>
                <mxCell id="Hr5KSAseugsl0qGZsUtE-68" value="" style="edgeStyle=orthogonalEdgeStyle;rounded=0;orthogonalLoop=1;jettySize=auto;html=1;entryX=1;entryY=0.5;entryDx=0;entryDy=0;exitX=0;exitY=0.5;exitDx=0;exitDy=0;" parent="1" source="Hr5KSAseugsl0qGZsUtE-64" edge="1">
                    <mxGeometry relative="1" as="geometry">
                        <mxPoint x="1019.9999999999995" y="1439.41" as="sourcePoint"/>
                        <mxPoint x="859.9999999999995" y="1439.4099999999999" as="targetPoint"/>
                    </mxGeometry>
                </mxCell>
                <mxCell id="Hr5KSAseugsl0qGZsUtE-69" value="" style="edgeStyle=orthogonalEdgeStyle;rounded=0;orthogonalLoop=1;jettySize=auto;html=1;entryX=1;entryY=0.5;entryDx=0;entryDy=0;exitX=0;exitY=0.5;exitDx=0;exitDy=0;" parent="1" source="Hr5KSAseugsl0qGZsUtE-66" edge="1">
                    <mxGeometry relative="1" as="geometry">
                        <mxPoint x="1260" y="1439" as="sourcePoint"/>
                        <mxPoint x="1119.9999999999995" y="1439.4099999999999" as="targetPoint"/>
                    </mxGeometry>
                </mxCell>
                <mxCell id="Hr5KSAseugsl0qGZsUtE-70" value="&lt;font style=&quot;font-size: 24px&quot;&gt;Double linked list&lt;/font&gt;" style="text;whiteSpace=wrap;html=1;" parent="1" vertex="1">
                    <mxGeometry x="240" y="1380" width="210" height="50" as="geometry"/>
                </mxCell>
                <mxCell id="Hr5KSAseugsl0qGZsUtE-71" value="" style="endArrow=classic;html=1;entryX=0.5;entryY=0;entryDx=0;entryDy=0;exitX=0.5;exitY=1;exitDx=0;exitDy=0;strokeWidth=2;" parent="1" source="Hr5KSAseugsl0qGZsUtE-50" target="Hr5KSAseugsl0qGZsUtE-57" edge="1">
                    <mxGeometry width="50" height="50" relative="1" as="geometry">
                        <mxPoint x="500" y="1015" as="sourcePoint"/>
                        <mxPoint x="1110" y="1180" as="targetPoint"/>
                    </mxGeometry>
                </mxCell>
                <mxCell id="Hr5KSAseugsl0qGZsUtE-76" value="" style="endArrow=classic;html=1;exitX=0.5;exitY=1;exitDx=0;exitDy=0;strokeWidth=2;" parent="1" source="Hr5KSAseugsl0qGZsUtE-51" target="Hr5KSAseugsl0qGZsUtE-60" edge="1">
                    <mxGeometry width="50" height="50" relative="1" as="geometry">
                        <mxPoint x="1060" y="1230" as="sourcePoint"/>
                        <mxPoint x="1110" y="1180" as="targetPoint"/>
                    </mxGeometry>
                </mxCell>
                <mxCell id="Hr5KSAseugsl0qGZsUtE-77" value="" style="endArrow=classic;html=1;exitX=0.5;exitY=1;exitDx=0;exitDy=0;entryX=0.5;entryY=0;entryDx=0;entryDy=0;strokeWidth=2;" parent="1" source="Hr5KSAseugsl0qGZsUtE-52" target="Hr5KSAseugsl0qGZsUtE-63" edge="1">
                    <mxGeometry width="50" height="50" relative="1" as="geometry">
                        <mxPoint x="1352.2199999999996" y="1100" as="sourcePoint"/>
                        <mxPoint x="1307.7755555555552" y="1340" as="targetPoint"/>
                    </mxGeometry>
                </mxCell>
                <mxCell id="Hr5KSAseugsl0qGZsUtE-78" value="" style="endArrow=classic;html=1;exitX=0.5;exitY=1;exitDx=0;exitDy=0;entryX=0.5;entryY=0;entryDx=0;entryDy=0;strokeWidth=2;" parent="1" source="Hr5KSAseugsl0qGZsUtE-53" target="Hr5KSAseugsl0qGZsUtE-65" edge="1">
                    <mxGeometry width="50" height="50" relative="1" as="geometry">
                        <mxPoint x="1060" y="1230" as="sourcePoint"/>
                        <mxPoint x="1110" y="1180" as="targetPoint"/>
                    </mxGeometry>
                </mxCell>
                <mxCell id="Hr5KSAseugsl0qGZsUtE-79" value="&lt;font style=&quot;font-size: 24px&quot;&gt;Hash Table&lt;/font&gt;" style="text;whiteSpace=wrap;html=1;" parent="1" vertex="1">
                    <mxGeometry x="245" y="950" width="310" height="50" as="geometry"/>
                </mxCell>
                <mxCell id="Hr5KSAseugsl0qGZsUtE-80" value="&lt;span style=&quot;font-size: 36px&quot;&gt;Hash linked list&lt;br&gt;&lt;/span&gt;" style="text;whiteSpace=wrap;html=1;" parent="1" vertex="1">
                    <mxGeometry x="785" y="1550" width="290" height="50" as="geometry"/>
                </mxCell>
                <mxCell id="Hr5KSAseugsl0qGZsUtE-81" value="&lt;font style=&quot;font-size: 30px&quot;&gt;Using Double linked list to store the Least Recent Used Node and locating the node through hash table.&lt;/font&gt;" style="text;whiteSpace=wrap;html=1;" parent="1" vertex="1">
                    <mxGeometry x="190" y="1620" width="1410" height="110" as="geometry"/>
                </mxCell>
                <mxCell id="seoBMSwjAouVl_4rgA2--1" value="&lt;span style=&quot;font-size: 30px&quot;&gt;The underlying implementation of Epoll is the Red-Black Tree.&lt;/span&gt;" style="text;whiteSpace=wrap;html=1;" parent="1" vertex="1">
                    <mxGeometry x="190" y="1780" width="1410" height="110" as="geometry"/>
                </mxCell>
                <mxCell id="eTyxEzj5VXjDmlqPO_ic-6" value="&lt;font style=&quot;font-size: 21px&quot;&gt;Using it in the TimeNode LFU算法做时间&lt;/font&gt;" style="text;html=1;strokeColor=none;fillColor=none;align=center;verticalAlign=middle;whiteSpace=wrap;rounded=0;" parent="1" vertex="1">
                    <mxGeometry x="190" y="1030" width="390" height="50" as="geometry"/>
                </mxCell>
            </root>
        </mxGraphModel>
    </diagram>
    <diagram id="I_nrCJZ88meiwJqfYkSm" name="HTTP_State_machine">
        <mxGraphModel dx="2013" dy="2023" grid="1" gridSize="10" guides="1" tooltips="1" connect="1" arrows="1" fold="1" page="1" pageScale="1" pageWidth="850" pageHeight="1100" math="0" shadow="0">
            <root>
                <mxCell id="trrRfsrMK0szwVsmX6ZU-0"/>
                <mxCell id="trrRfsrMK0szwVsmX6ZU-1" parent="trrRfsrMK0szwVsmX6ZU-0"/>
                <mxCell id="trrRfsrMK0szwVsmX6ZU-119" value="" style="rounded=0;whiteSpace=wrap;html=1;fontSize=24;fillColor=none;strokeWidth=4;" parent="trrRfsrMK0szwVsmX6ZU-1" vertex="1">
                    <mxGeometry x="110" y="-230" width="2060" height="752.12" as="geometry"/>
                </mxCell>
                <mxCell id="trrRfsrMK0szwVsmX6ZU-66" style="edgeStyle=none;html=1;exitX=0.5;exitY=0;exitDx=0;exitDy=0;entryX=0.5;entryY=1;entryDx=0;entryDy=0;fontSize=24;strokeWidth=2;" parent="trrRfsrMK0szwVsmX6ZU-1" source="trrRfsrMK0szwVsmX6ZU-14" target="trrRfsrMK0szwVsmX6ZU-65" edge="1">
                    <mxGeometry relative="1" as="geometry"/>
                </mxCell>
                <mxCell id="trrRfsrMK0szwVsmX6ZU-14" value="" style="rounded=0;whiteSpace=wrap;html=1;fontSize=18;fillColor=none;strokeWidth=4;" parent="trrRfsrMK0szwVsmX6ZU-1" vertex="1">
                    <mxGeometry x="140" y="210" width="570" height="290" as="geometry"/>
                </mxCell>
                <mxCell id="trrRfsrMK0szwVsmX6ZU-6" style="edgeStyle=none;html=1;exitX=0.75;exitY=1;exitDx=0;exitDy=0;entryX=0.75;entryY=0;entryDx=0;entryDy=0;fontSize=18;" parent="trrRfsrMK0szwVsmX6ZU-1" source="trrRfsrMK0szwVsmX6ZU-2" target="trrRfsrMK0szwVsmX6ZU-3" edge="1">
                    <mxGeometry relative="1" as="geometry"/>
                </mxCell>
                <mxCell id="trrRfsrMK0szwVsmX6ZU-10" value="" style="edgeStyle=none;html=1;fontSize=18;" parent="trrRfsrMK0szwVsmX6ZU-1" source="trrRfsrMK0szwVsmX6ZU-2" target="trrRfsrMK0szwVsmX6ZU-9" edge="1">
                    <mxGeometry relative="1" as="geometry"/>
                </mxCell>
                <mxCell id="trrRfsrMK0szwVsmX6ZU-2" value="&lt;font style=&quot;font-size: 18px&quot;&gt;LINE_OPEN&lt;/font&gt;" style="rounded=1;whiteSpace=wrap;html=1;fillColor=#99CCFF;" parent="trrRfsrMK0szwVsmX6ZU-1" vertex="1">
                    <mxGeometry x="210" y="230" width="120" height="60" as="geometry"/>
                </mxCell>
                <mxCell id="trrRfsrMK0szwVsmX6ZU-5" style="edgeStyle=none;html=1;exitX=0.25;exitY=0;exitDx=0;exitDy=0;entryX=0.25;entryY=1;entryDx=0;entryDy=0;fontSize=18;" parent="trrRfsrMK0szwVsmX6ZU-1" source="trrRfsrMK0szwVsmX6ZU-3" target="trrRfsrMK0szwVsmX6ZU-2" edge="1">
                    <mxGeometry relative="1" as="geometry"/>
                </mxCell>
                <mxCell id="trrRfsrMK0szwVsmX6ZU-3" value="&lt;font style=&quot;font-size: 18px&quot;&gt;LINE_OK&lt;/font&gt;" style="rounded=1;whiteSpace=wrap;html=1;fillColor=#66CC00;" parent="trrRfsrMK0szwVsmX6ZU-1" vertex="1">
                    <mxGeometry x="210" y="430" width="120" height="60" as="geometry"/>
                </mxCell>
                <mxCell id="trrRfsrMK0szwVsmX6ZU-7" value="Reading the char&lt;br&gt;of &quot;\r\n&quot;&amp;nbsp;" style="text;html=1;strokeColor=none;fillColor=none;align=center;verticalAlign=middle;whiteSpace=wrap;rounded=0;fontSize=18;" parent="trrRfsrMK0szwVsmX6ZU-1" vertex="1">
                    <mxGeometry x="160" y="320" width="70" height="80" as="geometry"/>
                </mxCell>
                <mxCell id="trrRfsrMK0szwVsmX6ZU-8" value="Getting&amp;nbsp; new&amp;nbsp;&lt;br&gt;request data" style="text;html=1;strokeColor=none;fillColor=none;align=center;verticalAlign=middle;whiteSpace=wrap;rounded=0;fontSize=18;" parent="trrRfsrMK0szwVsmX6ZU-1" vertex="1">
                    <mxGeometry x="310" y="320" width="110" height="80" as="geometry"/>
                </mxCell>
                <mxCell id="trrRfsrMK0szwVsmX6ZU-9" value="&lt;font style=&quot;font-size: 18px&quot;&gt;LINE_BAD&lt;/font&gt;" style="rounded=1;whiteSpace=wrap;html=1;fillColor=#FF9999;" parent="trrRfsrMK0szwVsmX6ZU-1" vertex="1">
                    <mxGeometry x="540" y="230" width="120" height="60" as="geometry"/>
                </mxCell>
                <mxCell id="trrRfsrMK0szwVsmX6ZU-11" value="Message syntax error" style="text;html=1;strokeColor=none;fillColor=none;align=center;verticalAlign=middle;whiteSpace=wrap;rounded=0;fontSize=18;" parent="trrRfsrMK0szwVsmX6ZU-1" vertex="1">
                    <mxGeometry x="350" y="220" width="160" height="80" as="geometry"/>
                </mxCell>
                <mxCell id="trrRfsrMK0szwVsmX6ZU-13" value="Slave State Machine" style="text;html=1;strokeColor=none;fillColor=none;align=center;verticalAlign=middle;whiteSpace=wrap;rounded=0;fontSize=18;" parent="trrRfsrMK0szwVsmX6ZU-1" vertex="1">
                    <mxGeometry x="500" y="370" width="210" height="80" as="geometry"/>
                </mxCell>
                <mxCell id="trrRfsrMK0szwVsmX6ZU-87" style="edgeStyle=none;html=1;exitX=0.75;exitY=1;exitDx=0;exitDy=0;entryX=0.25;entryY=0;entryDx=0;entryDy=0;fontSize=24;strokeWidth=2;" parent="trrRfsrMK0szwVsmX6ZU-1" source="trrRfsrMK0szwVsmX6ZU-65" target="trrRfsrMK0szwVsmX6ZU-86" edge="1">
                    <mxGeometry relative="1" as="geometry"/>
                </mxCell>
                <mxCell id="trrRfsrMK0szwVsmX6ZU-65" value="&lt;font style=&quot;font-size: 24px&quot;&gt;CHECK_STATE_REQUESTLINE&lt;/font&gt;" style="rounded=1;whiteSpace=wrap;html=1;fillColor=#66CC00;" parent="trrRfsrMK0szwVsmX6ZU-1" vertex="1">
                    <mxGeometry x="230" y="-150" width="390" height="100.21" as="geometry"/>
                </mxCell>
                <mxCell id="trrRfsrMK0szwVsmX6ZU-67" value="&lt;font style=&quot;font-size: 24px&quot;&gt;LINE_OK&lt;/font&gt;" style="text;html=1;strokeColor=none;fillColor=none;align=center;verticalAlign=middle;whiteSpace=wrap;rounded=0;fontSize=18;" parent="trrRfsrMK0szwVsmX6ZU-1" vertex="1">
                    <mxGeometry x="410" y="140" width="160" height="80" as="geometry"/>
                </mxCell>
                <mxCell id="trrRfsrMK0szwVsmX6ZU-68" value="&lt;span style=&quot;font-size: 24px&quot;&gt;Getting a line of data&lt;/span&gt;" style="text;html=1;strokeColor=none;fillColor=none;align=center;verticalAlign=middle;whiteSpace=wrap;rounded=0;fontSize=18;" parent="trrRfsrMK0szwVsmX6ZU-1" vertex="1">
                    <mxGeometry x="265" y="130" width="160" height="80" as="geometry"/>
                </mxCell>
                <mxCell id="trrRfsrMK0szwVsmX6ZU-69" style="edgeStyle=none;html=1;exitX=0.5;exitY=0;exitDx=0;exitDy=0;entryX=0.5;entryY=1;entryDx=0;entryDy=0;fontSize=24;strokeWidth=2;" parent="trrRfsrMK0szwVsmX6ZU-1" source="trrRfsrMK0szwVsmX6ZU-70" target="trrRfsrMK0szwVsmX6ZU-82" edge="1">
                    <mxGeometry relative="1" as="geometry"/>
                </mxCell>
                <mxCell id="trrRfsrMK0szwVsmX6ZU-70" value="" style="rounded=0;whiteSpace=wrap;html=1;fontSize=18;fillColor=none;strokeWidth=4;" parent="trrRfsrMK0szwVsmX6ZU-1" vertex="1">
                    <mxGeometry x="780" y="210" width="570" height="290" as="geometry"/>
                </mxCell>
                <mxCell id="trrRfsrMK0szwVsmX6ZU-71" style="edgeStyle=none;html=1;exitX=0.75;exitY=1;exitDx=0;exitDy=0;entryX=0.75;entryY=0;entryDx=0;entryDy=0;fontSize=18;" parent="trrRfsrMK0szwVsmX6ZU-1" source="trrRfsrMK0szwVsmX6ZU-73" target="trrRfsrMK0szwVsmX6ZU-75" edge="1">
                    <mxGeometry relative="1" as="geometry"/>
                </mxCell>
                <mxCell id="trrRfsrMK0szwVsmX6ZU-72" value="" style="edgeStyle=none;html=1;fontSize=18;" parent="trrRfsrMK0szwVsmX6ZU-1" source="trrRfsrMK0szwVsmX6ZU-73" target="trrRfsrMK0szwVsmX6ZU-78" edge="1">
                    <mxGeometry relative="1" as="geometry"/>
                </mxCell>
                <mxCell id="trrRfsrMK0szwVsmX6ZU-73" value="&lt;font style=&quot;font-size: 18px&quot;&gt;LINE_OPEN&lt;/font&gt;" style="rounded=1;whiteSpace=wrap;html=1;fillColor=#99CCFF;" parent="trrRfsrMK0szwVsmX6ZU-1" vertex="1">
                    <mxGeometry x="850" y="230" width="120" height="60" as="geometry"/>
                </mxCell>
                <mxCell id="trrRfsrMK0szwVsmX6ZU-74" style="edgeStyle=none;html=1;exitX=0.25;exitY=0;exitDx=0;exitDy=0;entryX=0.25;entryY=1;entryDx=0;entryDy=0;fontSize=18;" parent="trrRfsrMK0szwVsmX6ZU-1" source="trrRfsrMK0szwVsmX6ZU-75" target="trrRfsrMK0szwVsmX6ZU-73" edge="1">
                    <mxGeometry relative="1" as="geometry"/>
                </mxCell>
                <mxCell id="trrRfsrMK0szwVsmX6ZU-75" value="&lt;font style=&quot;font-size: 18px&quot;&gt;LINE_OK&lt;/font&gt;" style="rounded=1;whiteSpace=wrap;html=1;fillColor=#66CC00;" parent="trrRfsrMK0szwVsmX6ZU-1" vertex="1">
                    <mxGeometry x="850" y="430" width="120" height="60" as="geometry"/>
                </mxCell>
                <mxCell id="trrRfsrMK0szwVsmX6ZU-76" value="Reading the char&lt;br&gt;of &quot;\r\n&quot;&amp;nbsp;" style="text;html=1;strokeColor=none;fillColor=none;align=center;verticalAlign=middle;whiteSpace=wrap;rounded=0;fontSize=18;" parent="trrRfsrMK0szwVsmX6ZU-1" vertex="1">
                    <mxGeometry x="800" y="320" width="70" height="80" as="geometry"/>
                </mxCell>
                <mxCell id="trrRfsrMK0szwVsmX6ZU-77" value="Getting&amp;nbsp; new&amp;nbsp;&lt;br&gt;request data" style="text;html=1;strokeColor=none;fillColor=none;align=center;verticalAlign=middle;whiteSpace=wrap;rounded=0;fontSize=18;" parent="trrRfsrMK0szwVsmX6ZU-1" vertex="1">
                    <mxGeometry x="950" y="320" width="110" height="80" as="geometry"/>
                </mxCell>
                <mxCell id="trrRfsrMK0szwVsmX6ZU-78" value="&lt;font style=&quot;font-size: 18px&quot;&gt;LINE_BAD&lt;/font&gt;" style="rounded=1;whiteSpace=wrap;html=1;fillColor=#FF9999;" parent="trrRfsrMK0szwVsmX6ZU-1" vertex="1">
                    <mxGeometry x="1180" y="230" width="120" height="60" as="geometry"/>
                </mxCell>
                <mxCell id="trrRfsrMK0szwVsmX6ZU-79" value="Message syntax error" style="text;html=1;strokeColor=none;fillColor=none;align=center;verticalAlign=middle;whiteSpace=wrap;rounded=0;fontSize=18;" parent="trrRfsrMK0szwVsmX6ZU-1" vertex="1">
                    <mxGeometry x="990" y="220" width="160" height="80" as="geometry"/>
                </mxCell>
                <mxCell id="trrRfsrMK0szwVsmX6ZU-80" value="&lt;font style=&quot;font-size: 24px&quot;&gt;parse_line()&lt;/font&gt;" style="rounded=1;whiteSpace=wrap;html=1;fillColor=#999999;" parent="trrRfsrMK0szwVsmX6ZU-1" vertex="1">
                    <mxGeometry x="1140" y="430" width="190" height="60" as="geometry"/>
                </mxCell>
                <mxCell id="trrRfsrMK0szwVsmX6ZU-81" value="Slave State Machine" style="text;html=1;strokeColor=none;fillColor=none;align=center;verticalAlign=middle;whiteSpace=wrap;rounded=0;fontSize=18;" parent="trrRfsrMK0szwVsmX6ZU-1" vertex="1">
                    <mxGeometry x="1140" y="370" width="210" height="80" as="geometry"/>
                </mxCell>
                <mxCell id="trrRfsrMK0szwVsmX6ZU-88" style="edgeStyle=none;html=1;exitX=0.25;exitY=1;exitDx=0;exitDy=0;entryX=0.75;entryY=0;entryDx=0;entryDy=0;fontSize=24;strokeWidth=2;" parent="trrRfsrMK0szwVsmX6ZU-1" source="trrRfsrMK0szwVsmX6ZU-82" target="trrRfsrMK0szwVsmX6ZU-86" edge="1">
                    <mxGeometry relative="1" as="geometry"/>
                </mxCell>
                <mxCell id="trrRfsrMK0szwVsmX6ZU-113" style="edgeStyle=none;html=1;exitX=0.75;exitY=1;exitDx=0;exitDy=0;entryX=0.25;entryY=0;entryDx=0;entryDy=0;fontSize=24;strokeWidth=2;" parent="trrRfsrMK0szwVsmX6ZU-1" source="trrRfsrMK0szwVsmX6ZU-82" target="trrRfsrMK0szwVsmX6ZU-111" edge="1">
                    <mxGeometry relative="1" as="geometry"/>
                </mxCell>
                <mxCell id="trrRfsrMK0szwVsmX6ZU-82" value="&lt;span style=&quot;font-size: 24px&quot;&gt;CHECK_STATE_HEADER&lt;/span&gt;" style="rounded=1;whiteSpace=wrap;html=1;fillColor=#99CCFF;" parent="trrRfsrMK0szwVsmX6ZU-1" vertex="1">
                    <mxGeometry x="870" y="-150" width="390" height="100.21" as="geometry"/>
                </mxCell>
                <mxCell id="trrRfsrMK0szwVsmX6ZU-83" value="&lt;font style=&quot;font-size: 24px&quot;&gt;LINE_OK&lt;/font&gt;" style="text;html=1;strokeColor=none;fillColor=none;align=center;verticalAlign=middle;whiteSpace=wrap;rounded=0;fontSize=18;" parent="trrRfsrMK0szwVsmX6ZU-1" vertex="1">
                    <mxGeometry x="1080" y="130" width="160" height="80" as="geometry"/>
                </mxCell>
                <mxCell id="trrRfsrMK0szwVsmX6ZU-84" value="&lt;span style=&quot;font-size: 24px&quot;&gt;Getting a line of data&lt;/span&gt;" style="text;html=1;strokeColor=none;fillColor=none;align=center;verticalAlign=middle;whiteSpace=wrap;rounded=0;fontSize=18;" parent="trrRfsrMK0szwVsmX6ZU-1" vertex="1">
                    <mxGeometry x="890" y="130" width="160" height="80" as="geometry"/>
                </mxCell>
                <mxCell id="trrRfsrMK0szwVsmX6ZU-85" value="&lt;font style=&quot;font-size: 24px&quot;&gt;parse_line()&lt;/font&gt;" style="rounded=1;whiteSpace=wrap;html=1;fillColor=#999999;" parent="trrRfsrMK0szwVsmX6ZU-1" vertex="1">
                    <mxGeometry x="500" y="430" width="190" height="60" as="geometry"/>
                </mxCell>
                <mxCell id="trrRfsrMK0szwVsmX6ZU-86" value="&lt;span style=&quot;font-size: 24px&quot;&gt;parase_request_line()&lt;/span&gt;" style="rounded=1;whiteSpace=wrap;html=1;fillColor=#FF8000;" parent="trrRfsrMK0szwVsmX6ZU-1" vertex="1">
                    <mxGeometry x="600" y="80" width="260" height="60" as="geometry"/>
                </mxCell>
                <mxCell id="trrRfsrMK0szwVsmX6ZU-90" value="&lt;div&gt;&lt;br&gt;&lt;/div&gt;&lt;div&gt;&lt;br&gt;&lt;/div&gt;&lt;div&gt;Parsing request lines&lt;/div&gt;&lt;div&gt;&lt;br&gt;&lt;/div&gt;" style="text;html=1;strokeColor=none;fillColor=none;align=center;verticalAlign=middle;whiteSpace=wrap;rounded=0;fontSize=24;" parent="trrRfsrMK0szwVsmX6ZU-1" vertex="1">
                    <mxGeometry x="460" y="-40" width="190" height="100" as="geometry"/>
                </mxCell>
                <mxCell id="trrRfsrMK0szwVsmX6ZU-92" value="&lt;div&gt;&lt;br&gt;&lt;/div&gt;&lt;div&gt;&lt;br&gt;&lt;/div&gt;&lt;div&gt;Parsing Over&lt;/div&gt;&lt;div&gt;&lt;br&gt;&lt;/div&gt;" style="text;html=1;strokeColor=none;fillColor=none;align=center;verticalAlign=middle;whiteSpace=wrap;rounded=0;fontSize=24;" parent="trrRfsrMK0szwVsmX6ZU-1" vertex="1">
                    <mxGeometry x="770" y="-49.79" width="190" height="100" as="geometry"/>
                </mxCell>
                <mxCell id="trrRfsrMK0szwVsmX6ZU-94" style="edgeStyle=none;html=1;exitX=0.5;exitY=0;exitDx=0;exitDy=0;entryX=0.5;entryY=1;entryDx=0;entryDy=0;fontSize=24;strokeWidth=2;" parent="trrRfsrMK0szwVsmX6ZU-1" source="trrRfsrMK0szwVsmX6ZU-95" target="trrRfsrMK0szwVsmX6ZU-108" edge="1">
                    <mxGeometry relative="1" as="geometry"/>
                </mxCell>
                <mxCell id="trrRfsrMK0szwVsmX6ZU-95" value="" style="rounded=0;whiteSpace=wrap;html=1;fontSize=18;fillColor=none;strokeWidth=4;" parent="trrRfsrMK0szwVsmX6ZU-1" vertex="1">
                    <mxGeometry x="1420" y="212" width="570" height="290" as="geometry"/>
                </mxCell>
                <mxCell id="trrRfsrMK0szwVsmX6ZU-96" style="edgeStyle=none;html=1;exitX=0.75;exitY=1;exitDx=0;exitDy=0;entryX=0.75;entryY=0;entryDx=0;entryDy=0;fontSize=18;" parent="trrRfsrMK0szwVsmX6ZU-1" source="trrRfsrMK0szwVsmX6ZU-98" target="trrRfsrMK0szwVsmX6ZU-100" edge="1">
                    <mxGeometry relative="1" as="geometry"/>
                </mxCell>
                <mxCell id="trrRfsrMK0szwVsmX6ZU-97" value="" style="edgeStyle=none;html=1;fontSize=18;" parent="trrRfsrMK0szwVsmX6ZU-1" source="trrRfsrMK0szwVsmX6ZU-98" target="trrRfsrMK0szwVsmX6ZU-103" edge="1">
                    <mxGeometry relative="1" as="geometry"/>
                </mxCell>
                <mxCell id="trrRfsrMK0szwVsmX6ZU-98" value="&lt;font style=&quot;font-size: 18px&quot;&gt;LINE_OPEN&lt;/font&gt;" style="rounded=1;whiteSpace=wrap;html=1;fillColor=#99CCFF;" parent="trrRfsrMK0szwVsmX6ZU-1" vertex="1">
                    <mxGeometry x="1490" y="232" width="120" height="60" as="geometry"/>
                </mxCell>
                <mxCell id="trrRfsrMK0szwVsmX6ZU-99" style="edgeStyle=none;html=1;exitX=0.25;exitY=0;exitDx=0;exitDy=0;entryX=0.25;entryY=1;entryDx=0;entryDy=0;fontSize=18;" parent="trrRfsrMK0szwVsmX6ZU-1" source="trrRfsrMK0szwVsmX6ZU-100" target="trrRfsrMK0szwVsmX6ZU-98" edge="1">
                    <mxGeometry relative="1" as="geometry"/>
                </mxCell>
                <mxCell id="trrRfsrMK0szwVsmX6ZU-100" value="&lt;font style=&quot;font-size: 18px&quot;&gt;LINE_OK&lt;/font&gt;" style="rounded=1;whiteSpace=wrap;html=1;fillColor=#66CC00;" parent="trrRfsrMK0szwVsmX6ZU-1" vertex="1">
                    <mxGeometry x="1490" y="432" width="120" height="60" as="geometry"/>
                </mxCell>
                <mxCell id="trrRfsrMK0szwVsmX6ZU-101" value="Reading the char&lt;br&gt;of &quot;\r\n&quot;&amp;nbsp;" style="text;html=1;strokeColor=none;fillColor=none;align=center;verticalAlign=middle;whiteSpace=wrap;rounded=0;fontSize=18;" parent="trrRfsrMK0szwVsmX6ZU-1" vertex="1">
                    <mxGeometry x="1440" y="322" width="70" height="80" as="geometry"/>
                </mxCell>
                <mxCell id="trrRfsrMK0szwVsmX6ZU-102" value="Getting&amp;nbsp; new&amp;nbsp;&lt;br&gt;request data" style="text;html=1;strokeColor=none;fillColor=none;align=center;verticalAlign=middle;whiteSpace=wrap;rounded=0;fontSize=18;" parent="trrRfsrMK0szwVsmX6ZU-1" vertex="1">
                    <mxGeometry x="1590" y="322" width="110" height="80" as="geometry"/>
                </mxCell>
                <mxCell id="trrRfsrMK0szwVsmX6ZU-103" value="&lt;font style=&quot;font-size: 18px&quot;&gt;LINE_BAD&lt;/font&gt;" style="rounded=1;whiteSpace=wrap;html=1;fillColor=#FF9999;" parent="trrRfsrMK0szwVsmX6ZU-1" vertex="1">
                    <mxGeometry x="1820" y="232" width="120" height="60" as="geometry"/>
                </mxCell>
                <mxCell id="trrRfsrMK0szwVsmX6ZU-104" value="Message syntax error" style="text;html=1;strokeColor=none;fillColor=none;align=center;verticalAlign=middle;whiteSpace=wrap;rounded=0;fontSize=18;" parent="trrRfsrMK0szwVsmX6ZU-1" vertex="1">
                    <mxGeometry x="1630" y="222" width="160" height="80" as="geometry"/>
                </mxCell>
                <mxCell id="trrRfsrMK0szwVsmX6ZU-105" value="&lt;font style=&quot;font-size: 24px&quot;&gt;parse_line()&lt;/font&gt;" style="rounded=1;whiteSpace=wrap;html=1;fillColor=#999999;" parent="trrRfsrMK0szwVsmX6ZU-1" vertex="1">
                    <mxGeometry x="1780" y="432" width="190" height="60" as="geometry"/>
                </mxCell>
                <mxCell id="trrRfsrMK0szwVsmX6ZU-106" value="Slave State Machine" style="text;html=1;strokeColor=none;fillColor=none;align=center;verticalAlign=middle;whiteSpace=wrap;rounded=0;fontSize=18;" parent="trrRfsrMK0szwVsmX6ZU-1" vertex="1">
                    <mxGeometry x="1780" y="372" width="210" height="80" as="geometry"/>
                </mxCell>
                <mxCell id="trrRfsrMK0szwVsmX6ZU-107" style="edgeStyle=none;html=1;exitX=0.25;exitY=1;exitDx=0;exitDy=0;entryX=0.75;entryY=0;entryDx=0;entryDy=0;fontSize=24;strokeWidth=2;" parent="trrRfsrMK0szwVsmX6ZU-1" source="trrRfsrMK0szwVsmX6ZU-108" target="trrRfsrMK0szwVsmX6ZU-111" edge="1">
                    <mxGeometry relative="1" as="geometry"/>
                </mxCell>
                <mxCell id="trrRfsrMK0szwVsmX6ZU-117" style="edgeStyle=none;html=1;exitX=0.75;exitY=1;exitDx=0;exitDy=0;entryX=0.25;entryY=0;entryDx=0;entryDy=0;fontSize=24;strokeWidth=2;" parent="trrRfsrMK0szwVsmX6ZU-1" source="trrRfsrMK0szwVsmX6ZU-108" target="trrRfsrMK0szwVsmX6ZU-116" edge="1">
                    <mxGeometry relative="1" as="geometry"/>
                </mxCell>
                <mxCell id="trrRfsrMK0szwVsmX6ZU-108" value="&lt;span style=&quot;font-size: 24px&quot;&gt;CHECK_STATE_CONTENT&lt;/span&gt;" style="rounded=1;whiteSpace=wrap;html=1;fillColor=#999900;" parent="trrRfsrMK0szwVsmX6ZU-1" vertex="1">
                    <mxGeometry x="1510" y="-148" width="390" height="100.21" as="geometry"/>
                </mxCell>
                <mxCell id="trrRfsrMK0szwVsmX6ZU-109" value="&lt;font style=&quot;font-size: 24px&quot;&gt;LINE_OK&lt;/font&gt;" style="text;html=1;strokeColor=none;fillColor=none;align=center;verticalAlign=middle;whiteSpace=wrap;rounded=0;fontSize=18;" parent="trrRfsrMK0szwVsmX6ZU-1" vertex="1">
                    <mxGeometry x="1720" y="132" width="160" height="80" as="geometry"/>
                </mxCell>
                <mxCell id="trrRfsrMK0szwVsmX6ZU-110" value="&lt;span style=&quot;font-size: 24px&quot;&gt;Getting a line of data&lt;/span&gt;" style="text;html=1;strokeColor=none;fillColor=none;align=center;verticalAlign=middle;whiteSpace=wrap;rounded=0;fontSize=18;" parent="trrRfsrMK0szwVsmX6ZU-1" vertex="1">
                    <mxGeometry x="1530" y="132" width="160" height="80" as="geometry"/>
                </mxCell>
                <mxCell id="trrRfsrMK0szwVsmX6ZU-124" style="edgeStyle=none;html=1;exitX=0.5;exitY=0;exitDx=0;exitDy=0;entryX=0.25;entryY=1;entryDx=0;entryDy=0;fontSize=48;strokeWidth=7;strokeColor=#99CCFF;" parent="trrRfsrMK0szwVsmX6ZU-1" source="trrRfsrMK0szwVsmX6ZU-111" target="trrRfsrMK0szwVsmX6ZU-122" edge="1">
                    <mxGeometry relative="1" as="geometry"/>
                </mxCell>
                <mxCell id="trrRfsrMK0szwVsmX6ZU-111" value="&lt;span style=&quot;font-size: 24px&quot;&gt;parase_Header()&lt;/span&gt;" style="rounded=1;whiteSpace=wrap;html=1;fillColor=#FF8000;" parent="trrRfsrMK0szwVsmX6ZU-1" vertex="1">
                    <mxGeometry x="1220" y="82" width="280" height="60" as="geometry"/>
                </mxCell>
                <mxCell id="trrRfsrMK0szwVsmX6ZU-112" value="&lt;div&gt;&lt;br&gt;&lt;/div&gt;&lt;div&gt;&lt;br&gt;&lt;/div&gt;&lt;div&gt;Parsing Over&lt;/div&gt;&lt;div&gt;&lt;br&gt;&lt;/div&gt;" style="text;html=1;strokeColor=none;fillColor=none;align=center;verticalAlign=middle;whiteSpace=wrap;rounded=0;fontSize=24;" parent="trrRfsrMK0szwVsmX6ZU-1" vertex="1">
                    <mxGeometry x="1410" y="-47.79" width="190" height="100" as="geometry"/>
                </mxCell>
                <mxCell id="trrRfsrMK0szwVsmX6ZU-114" value="&lt;div&gt;&lt;br&gt;&lt;/div&gt;&lt;div&gt;&lt;br&gt;&lt;/div&gt;&lt;div&gt;Parsing Header&lt;/div&gt;&lt;div&gt;&lt;br&gt;&lt;/div&gt;" style="text;html=1;strokeColor=none;fillColor=none;align=center;verticalAlign=middle;whiteSpace=wrap;rounded=0;fontSize=24;" parent="trrRfsrMK0szwVsmX6ZU-1" vertex="1">
                    <mxGeometry x="1180" y="-47.79" width="190" height="100" as="geometry"/>
                </mxCell>
                <mxCell id="trrRfsrMK0szwVsmX6ZU-123" style="edgeStyle=none;html=1;exitX=0.5;exitY=0;exitDx=0;exitDy=0;entryX=0.75;entryY=1;entryDx=0;entryDy=0;fontSize=48;strokeWidth=7;strokeColor=#99CCFF;" parent="trrRfsrMK0szwVsmX6ZU-1" source="trrRfsrMK0szwVsmX6ZU-116" target="trrRfsrMK0szwVsmX6ZU-122" edge="1">
                    <mxGeometry relative="1" as="geometry"/>
                </mxCell>
                <mxCell id="trrRfsrMK0szwVsmX6ZU-116" value="&lt;span style=&quot;font-size: 24px&quot;&gt;parase_content()&lt;/span&gt;" style="rounded=1;whiteSpace=wrap;html=1;fillColor=#FF8000;" parent="trrRfsrMK0szwVsmX6ZU-1" vertex="1">
                    <mxGeometry x="1870" y="72" width="280" height="60" as="geometry"/>
                </mxCell>
                <mxCell id="trrRfsrMK0szwVsmX6ZU-118" value="&lt;div&gt;&lt;br&gt;&lt;/div&gt;&lt;div&gt;&lt;br&gt;&lt;/div&gt;&lt;div&gt;Parsing Content&lt;/div&gt;&lt;div&gt;&lt;br&gt;&lt;/div&gt;" style="text;html=1;strokeColor=none;fillColor=none;align=center;verticalAlign=middle;whiteSpace=wrap;rounded=0;fontSize=24;" parent="trrRfsrMK0szwVsmX6ZU-1" vertex="1">
                    <mxGeometry x="1840" y="-49.79" width="190" height="100" as="geometry"/>
                </mxCell>
                <mxCell id="trrRfsrMK0szwVsmX6ZU-121" value="&lt;font style=&quot;font-size: 36px&quot;&gt;Main state machine&lt;/font&gt;" style="text;html=1;strokeColor=none;fillColor=none;align=center;verticalAlign=middle;whiteSpace=wrap;rounded=0;fontSize=18;" parent="trrRfsrMK0szwVsmX6ZU-1" vertex="1">
                    <mxGeometry x="60" y="-240" width="450" height="80" as="geometry"/>
                </mxCell>
                <mxCell id="trrRfsrMK0szwVsmX6ZU-122" value="&lt;font style=&quot;font-size: 48px&quot;&gt;do_request&lt;/font&gt;" style="rounded=1;whiteSpace=wrap;html=1;fillColor=#004C99;" parent="trrRfsrMK0szwVsmX6ZU-1" vertex="1">
                    <mxGeometry x="1250" y="-370" width="880" height="106.25" as="geometry"/>
                </mxCell>
            </root>
        </mxGraphModel>
    </diagram>
    <diagram id="tyioXIlnpts0HTeeuO_K" name="HTTP_Request">
        <mxGraphModel dx="1610" dy="738" grid="1" gridSize="10" guides="1" tooltips="1" connect="1" arrows="1" fold="1" page="1" pageScale="1" pageWidth="850" pageHeight="1100" math="0" shadow="0">
            <root>
                <mxCell id="Jjdm6nXYkdeICC_VZasA-0"/>
                <mxCell id="Jjdm6nXYkdeICC_VZasA-1" parent="Jjdm6nXYkdeICC_VZasA-0"/>
                <mxCell id="IOTEVv5gJBbN5gHot6_p-9" value="" style="rounded=1;whiteSpace=wrap;html=1;fontSize=16;fontStyle=1" parent="Jjdm6nXYkdeICC_VZasA-1" vertex="1">
                    <mxGeometry x="815" y="55.56" width="965" height="358.87" as="geometry"/>
                </mxCell>
                <mxCell id="IOTEVv5gJBbN5gHot6_p-6" value="" style="edgeStyle=none;html=1;fontSize=16;fontStyle=1" parent="Jjdm6nXYkdeICC_VZasA-1" source="IOTEVv5gJBbN5gHot6_p-2" edge="1">
                    <mxGeometry relative="1" as="geometry">
                        <mxPoint x="554" y="234.58333333333326" as="targetPoint"/>
                    </mxGeometry>
                </mxCell>
                <mxCell id="IOTEVv5gJBbN5gHot6_p-2" value="" style="rounded=1;whiteSpace=wrap;html=1;fontSize=16;fontStyle=1" parent="Jjdm6nXYkdeICC_VZasA-1" vertex="1">
                    <mxGeometry x="256" y="123" width="140" height="220" as="geometry"/>
                </mxCell>
                <mxCell id="IOTEVv5gJBbN5gHot6_p-0" value="HTTP Request Message" style="rounded=0;whiteSpace=wrap;html=1;fontSize=16;fontStyle=1" parent="Jjdm6nXYkdeICC_VZasA-1" vertex="1">
                    <mxGeometry x="276" y="173" width="100" height="60" as="geometry"/>
                </mxCell>
                <mxCell id="IOTEVv5gJBbN5gHot6_p-1" value="HTTP Response Message" style="rounded=0;whiteSpace=wrap;html=1;fontSize=16;fontStyle=1" parent="Jjdm6nXYkdeICC_VZasA-1" vertex="1">
                    <mxGeometry x="276" y="253" width="100" height="60" as="geometry"/>
                </mxCell>
                <mxCell id="IOTEVv5gJBbN5gHot6_p-4" value="&lt;font style=&quot;font-size: 16px;&quot; color=&quot;#99ccff&quot;&gt;Browser&lt;/font&gt;" style="text;html=1;strokeColor=none;fillColor=none;align=center;verticalAlign=middle;whiteSpace=wrap;rounded=0;fontSize=16;fontStyle=1" parent="Jjdm6nXYkdeICC_VZasA-1" vertex="1">
                    <mxGeometry x="296" y="130" width="60" height="30" as="geometry"/>
                </mxCell>
                <mxCell id="IOTEVv5gJBbN5gHot6_p-10" value="" style="edgeStyle=none;html=1;fontSize=16;fontColor=#FF8000;fontStyle=1" parent="Jjdm6nXYkdeICC_VZasA-1" source="IOTEVv5gJBbN5gHot6_p-5" target="IOTEVv5gJBbN5gHot6_p-9" edge="1">
                    <mxGeometry relative="1" as="geometry"/>
                </mxCell>
                <mxCell id="IOTEVv5gJBbN5gHot6_p-5" value="&lt;font style=&quot;font-size: 18px&quot;&gt;read_once&lt;/font&gt;" style="rounded=1;whiteSpace=wrap;html=1;fontSize=16;fontStyle=1" parent="Jjdm6nXYkdeICC_VZasA-1" vertex="1">
                    <mxGeometry x="553" y="205" width="120" height="60" as="geometry"/>
                </mxCell>
                <mxCell id="IOTEVv5gJBbN5gHot6_p-7" value="&lt;font style=&quot;font-size: 16px;&quot;&gt;Monitoring the Read/Write Events&lt;/font&gt;" style="text;html=1;strokeColor=none;fillColor=none;align=center;verticalAlign=middle;whiteSpace=wrap;rounded=0;fontSize=16;fontStyle=1" parent="Jjdm6nXYkdeICC_VZasA-1" vertex="1">
                    <mxGeometry x="411" y="157" width="120" height="57.04" as="geometry"/>
                </mxCell>
                <mxCell id="IOTEVv5gJBbN5gHot6_p-8" value="&lt;font color=&quot;#ff8000&quot; style=&quot;font-size: 18px&quot;&gt;Main Threads&lt;/font&gt;" style="text;html=1;strokeColor=none;fillColor=none;align=center;verticalAlign=middle;whiteSpace=wrap;rounded=0;fontSize=16;fontStyle=1" parent="Jjdm6nXYkdeICC_VZasA-1" vertex="1">
                    <mxGeometry x="360" y="240" width="220" height="30" as="geometry"/>
                </mxCell>
                <mxCell id="IOTEVv5gJBbN5gHot6_p-11" value="&lt;font color=&quot;#ff8000&quot; style=&quot;font-size: 18px&quot;&gt;Main Threads&lt;/font&gt;" style="text;html=1;strokeColor=none;fillColor=none;align=center;verticalAlign=middle;whiteSpace=wrap;rounded=0;fontSize=16;fontStyle=1" parent="Jjdm6nXYkdeICC_VZasA-1" vertex="1">
                    <mxGeometry x="630" y="240" width="220" height="30" as="geometry"/>
                </mxCell>
                <mxCell id="IOTEVv5gJBbN5gHot6_p-12" value="&lt;span style=&quot;font-size: 16px;&quot;&gt;Reading the request message&lt;/span&gt;" style="text;html=1;strokeColor=none;fillColor=none;align=center;verticalAlign=middle;whiteSpace=wrap;rounded=0;fontSize=16;fontStyle=1" parent="Jjdm6nXYkdeICC_VZasA-1" vertex="1">
                    <mxGeometry x="682.5" y="170" width="115" height="60" as="geometry"/>
                </mxCell>
                <mxCell id="IOTEVv5gJBbN5gHot6_p-14" value="" style="rounded=1;whiteSpace=wrap;html=1;labelBackgroundColor=#9999FF;fontSize=16;fontColor=#99CCFF;fontStyle=1" parent="Jjdm6nXYkdeICC_VZasA-1" vertex="1">
                    <mxGeometry x="827" y="120" width="410" height="230" as="geometry"/>
                </mxCell>
                <mxCell id="UGq73vawDLnYW-L7hYSb-13" style="edgeStyle=none;html=1;exitX=1;exitY=0.75;exitDx=0;exitDy=0;fontSize=16;fontColor=#FF3399;strokeWidth=1;entryX=0;entryY=0.75;entryDx=0;entryDy=0;fontStyle=1" parent="Jjdm6nXYkdeICC_VZasA-1" source="uexj_ohfp6Kn9-MlRs1a-3" target="UGq73vawDLnYW-L7hYSb-11" edge="1">
                    <mxGeometry relative="1" as="geometry"/>
                </mxCell>
                <mxCell id="uexj_ohfp6Kn9-MlRs1a-3" value="&lt;font style=&quot;font-size: 24px&quot; color=&quot;#ff0000&quot;&gt;Slave Statment machine&lt;/font&gt;" style="rounded=1;whiteSpace=wrap;html=1;labelBackgroundColor=none;fontSize=16;fontColor=#FFFFFF;fontStyle=1" parent="Jjdm6nXYkdeICC_VZasA-1" vertex="1">
                    <mxGeometry x="847" y="175" width="120" height="155" as="geometry"/>
                </mxCell>
                <mxCell id="uexj_ohfp6Kn9-MlRs1a-7" value="do_requst()" style="rounded=1;whiteSpace=wrap;html=1;labelBackgroundColor=none;fontSize=16;fontColor=#FFFFFF;fontStyle=1" parent="Jjdm6nXYkdeICC_VZasA-1" vertex="1">
                    <mxGeometry x="1103" y="195" width="120" height="45" as="geometry"/>
                </mxCell>
                <mxCell id="uexj_ohfp6Kn9-MlRs1a-8" value="" style="endArrow=classic;html=1;fontSize=16;fontColor=#FFFFFF;exitX=1;exitY=0.25;exitDx=0;exitDy=0;fontStyle=1" parent="Jjdm6nXYkdeICC_VZasA-1" source="uexj_ohfp6Kn9-MlRs1a-3" target="uexj_ohfp6Kn9-MlRs1a-7" edge="1">
                    <mxGeometry width="50" height="50" relative="1" as="geometry">
                        <mxPoint x="1207" y="370" as="sourcePoint"/>
                        <mxPoint x="1257" y="320" as="targetPoint"/>
                    </mxGeometry>
                </mxCell>
                <mxCell id="UGq73vawDLnYW-L7hYSb-0" value="&lt;font color=&quot;#99ff99&quot; style=&quot;font-size: 24px&quot;&gt;Main Statement mahcine&lt;/font&gt;" style="text;html=1;strokeColor=none;fillColor=none;align=center;verticalAlign=middle;whiteSpace=wrap;rounded=0;labelBackgroundColor=none;fontSize=16;fontColor=#FFFFFF;fontStyle=1" parent="Jjdm6nXYkdeICC_VZasA-1" vertex="1">
                    <mxGeometry x="877" y="100" width="300" height="100" as="geometry"/>
                </mxCell>
                <mxCell id="UGq73vawDLnYW-L7hYSb-1" value="&lt;span style=&quot;font-size: 16px;&quot;&gt;GET_REQUEST&lt;/span&gt;" style="text;html=1;strokeColor=none;fillColor=none;align=center;verticalAlign=middle;whiteSpace=wrap;rounded=0;fontSize=16;fontStyle=1" parent="Jjdm6nXYkdeICC_VZasA-1" vertex="1">
                    <mxGeometry x="962" y="175" width="150" height="30" as="geometry"/>
                </mxCell>
                <mxCell id="UGq73vawDLnYW-L7hYSb-4" value="" style="endArrow=classic;startArrow=classic;html=1;fontSize=16;fontColor=#99FF99;strokeWidth=3;fontStyle=1" parent="Jjdm6nXYkdeICC_VZasA-1" edge="1">
                    <mxGeometry width="50" height="50" relative="1" as="geometry">
                        <mxPoint x="1060" y="120" as="sourcePoint"/>
                        <mxPoint x="480" y="140" as="targetPoint"/>
                        <Array as="points">
                            <mxPoint x="1060" y="10"/>
                            <mxPoint x="480" y="10"/>
                        </Array>
                    </mxGeometry>
                </mxCell>
                <mxCell id="UGq73vawDLnYW-L7hYSb-5" value="&lt;font style=&quot;font-size: 16px;&quot;&gt;NO_REQUEST&lt;/font&gt;" style="text;html=1;strokeColor=none;fillColor=none;align=center;verticalAlign=middle;whiteSpace=wrap;rounded=0;fontSize=16;fontStyle=1" parent="Jjdm6nXYkdeICC_VZasA-1" vertex="1">
                    <mxGeometry x="630" y="20" width="150" height="30" as="geometry"/>
                </mxCell>
                <mxCell id="UGq73vawDLnYW-L7hYSb-6" value="process_read()" style="rounded=1;whiteSpace=wrap;html=1;labelBackgroundColor=none;fontSize=16;fontColor=#FFFFFF;fontStyle=1" parent="Jjdm6nXYkdeICC_VZasA-1" vertex="1">
                    <mxGeometry x="962" y="370" width="130" height="30" as="geometry"/>
                </mxCell>
                <mxCell id="UGq73vawDLnYW-L7hYSb-7" value="&lt;font color=&quot;#ff3399&quot; style=&quot;font-size: 16px;&quot;&gt;Server sub thread&lt;/font&gt;" style="text;html=1;strokeColor=none;fillColor=none;align=center;verticalAlign=middle;whiteSpace=wrap;rounded=0;fontSize=16;fontStyle=1" parent="Jjdm6nXYkdeICC_VZasA-1" vertex="1">
                    <mxGeometry x="1112" y="70" width="220" height="30" as="geometry"/>
                </mxCell>
                <mxCell id="UGq73vawDLnYW-L7hYSb-29" style="edgeStyle=none;html=1;exitX=1;exitY=0.5;exitDx=0;exitDy=0;fontSize=16;fontColor=#FFFFFF;strokeWidth=1;entryX=0;entryY=0.5;entryDx=0;entryDy=0;fontStyle=1" parent="Jjdm6nXYkdeICC_VZasA-1" source="UGq73vawDLnYW-L7hYSb-11" target="UGq73vawDLnYW-L7hYSb-28" edge="1">
                    <mxGeometry relative="1" as="geometry"/>
                </mxCell>
                <mxCell id="UGq73vawDLnYW-L7hYSb-11" value="" style="rounded=1;whiteSpace=wrap;html=1;labelBackgroundColor=#9999FF;fontSize=16;fontColor=#99CCFF;fontStyle=1" parent="Jjdm6nXYkdeICC_VZasA-1" vertex="1">
                    <mxGeometry x="1437" y="110" width="180" height="250" as="geometry"/>
                </mxCell>
                <mxCell id="UGq73vawDLnYW-L7hYSb-12" style="edgeStyle=none;html=1;fontSize=16;fontColor=#FF3399;strokeWidth=1;exitX=1;exitY=0.5;exitDx=0;exitDy=0;fontStyle=1;entryX=-0.006;entryY=0.435;entryDx=0;entryDy=0;entryPerimeter=0;" parent="Jjdm6nXYkdeICC_VZasA-1" source="uexj_ohfp6Kn9-MlRs1a-7" target="UGq73vawDLnYW-L7hYSb-11" edge="1">
                    <mxGeometry relative="1" as="geometry">
                        <mxPoint x="1227" y="218" as="sourcePoint"/>
                        <mxPoint x="1457" y="218" as="targetPoint"/>
                    </mxGeometry>
                </mxCell>
                <mxCell id="UGq73vawDLnYW-L7hYSb-15" value="&lt;span style=&quot;font-size: 16px;&quot;&gt;BAD_REQUEST&lt;/span&gt;" style="text;html=1;strokeColor=none;fillColor=none;align=center;verticalAlign=middle;whiteSpace=wrap;rounded=0;fontSize=16;fontStyle=1" parent="Jjdm6nXYkdeICC_VZasA-1" vertex="1">
                    <mxGeometry x="967" y="260" width="150" height="30" as="geometry"/>
                </mxCell>
                <mxCell id="UGq73vawDLnYW-L7hYSb-16" value="&lt;span style=&quot;font-size: 16px;&quot;&gt;INTERNAL_ERROR&lt;/span&gt;" style="text;html=1;strokeColor=none;fillColor=none;align=center;verticalAlign=middle;whiteSpace=wrap;rounded=0;fontSize=16;fontStyle=1" parent="Jjdm6nXYkdeICC_VZasA-1" vertex="1">
                    <mxGeometry x="967" y="300" width="150" height="30" as="geometry"/>
                </mxCell>
                <mxCell id="UGq73vawDLnYW-L7hYSb-17" value="&lt;span style=&quot;font-size: 16px;&quot;&gt;FILE_REQUEST&lt;/span&gt;" style="text;html=1;strokeColor=none;fillColor=none;align=center;verticalAlign=middle;whiteSpace=wrap;rounded=0;fontSize=16;fontStyle=1" parent="Jjdm6nXYkdeICC_VZasA-1" vertex="1">
                    <mxGeometry x="1261" y="220" width="150" height="30" as="geometry"/>
                </mxCell>
                <mxCell id="UGq73vawDLnYW-L7hYSb-18" value="&lt;span style=&quot;font-size: 16px;&quot;&gt;NO_RESOURCE&lt;/span&gt;" style="text;html=1;strokeColor=none;fillColor=none;align=center;verticalAlign=middle;whiteSpace=wrap;rounded=0;fontSize=16;fontStyle=1" parent="Jjdm6nXYkdeICC_VZasA-1" vertex="1">
                    <mxGeometry x="1261" y="190" width="150" height="30" as="geometry"/>
                </mxCell>
                <mxCell id="UGq73vawDLnYW-L7hYSb-19" value="&lt;span style=&quot;font-size: 16px;&quot;&gt;BAD_REQUEST&lt;/span&gt;" style="text;html=1;strokeColor=none;fillColor=none;align=center;verticalAlign=middle;whiteSpace=wrap;rounded=0;fontSize=16;fontStyle=1" parent="Jjdm6nXYkdeICC_VZasA-1" vertex="1">
                    <mxGeometry x="1261" y="170" width="150" height="30" as="geometry"/>
                </mxCell>
                <mxCell id="UGq73vawDLnYW-L7hYSb-20" value="&lt;span style=&quot;font-size: 16px;&quot;&gt;FORBIDDEN_REQUEST&lt;/span&gt;" style="text;html=1;strokeColor=none;fillColor=none;align=center;verticalAlign=middle;whiteSpace=wrap;rounded=0;fontSize=16;fontStyle=1" parent="Jjdm6nXYkdeICC_VZasA-1" vertex="1">
                    <mxGeometry x="1261" y="145" width="150" height="30" as="geometry"/>
                </mxCell>
                <mxCell id="UGq73vawDLnYW-L7hYSb-22" value="&lt;font color=&quot;#ffffff&quot; style=&quot;font-size: 16px;&quot;&gt;add_status_line()&lt;/font&gt;" style="rounded=1;whiteSpace=wrap;html=1;labelBackgroundColor=none;fontSize=16;fontColor=#FF3399;fontStyle=1" parent="Jjdm6nXYkdeICC_VZasA-1" vertex="1">
                    <mxGeometry x="1447" y="127" width="155" height="40" as="geometry"/>
                </mxCell>
                <mxCell id="UGq73vawDLnYW-L7hYSb-23" value="&lt;font color=&quot;#ffffff&quot; style=&quot;font-size: 16px;&quot;&gt;add_headers()&lt;/font&gt;" style="rounded=1;whiteSpace=wrap;html=1;labelBackgroundColor=none;fontSize=16;fontColor=#FF3399;fontStyle=1" parent="Jjdm6nXYkdeICC_VZasA-1" vertex="1">
                    <mxGeometry x="1447" y="185" width="155" height="40" as="geometry"/>
                </mxCell>
                <mxCell id="UGq73vawDLnYW-L7hYSb-25" value="&lt;font color=&quot;#ffffff&quot; style=&quot;font-size: 16px;&quot;&gt;add_blank_line()&lt;/font&gt;" style="rounded=1;whiteSpace=wrap;html=1;labelBackgroundColor=none;fontSize=16;fontColor=#FF3399;fontStyle=1" parent="Jjdm6nXYkdeICC_VZasA-1" vertex="1">
                    <mxGeometry x="1447" y="240" width="155" height="40" as="geometry"/>
                </mxCell>
                <mxCell id="UGq73vawDLnYW-L7hYSb-26" value="&lt;font color=&quot;#ffffff&quot; style=&quot;font-size: 16px;&quot;&gt;m_file_address()&lt;/font&gt;" style="rounded=1;whiteSpace=wrap;html=1;labelBackgroundColor=none;fontSize=16;fontColor=#FF3399;fontStyle=1" parent="Jjdm6nXYkdeICC_VZasA-1" vertex="1">
                    <mxGeometry x="1447" y="300" width="155" height="40" as="geometry"/>
                </mxCell>
                <mxCell id="UGq73vawDLnYW-L7hYSb-27" value="process_write()" style="rounded=1;whiteSpace=wrap;html=1;labelBackgroundColor=none;fontSize=16;fontColor=#FFFFFF;fontStyle=1" parent="Jjdm6nXYkdeICC_VZasA-1" vertex="1">
                    <mxGeometry x="1454.5" y="369.43" width="140" height="30.57" as="geometry"/>
                </mxCell>
                <mxCell id="PJ7CUUwKFl2socQLG_yQ-2" value="" style="edgeStyle=none;html=1;fontSize=16;fontColor=#FFFFFF;strokeWidth=1;fontStyle=1" parent="Jjdm6nXYkdeICC_VZasA-1" source="UGq73vawDLnYW-L7hYSb-28" target="PJ7CUUwKFl2socQLG_yQ-1" edge="1">
                    <mxGeometry relative="1" as="geometry"/>
                </mxCell>
                <mxCell id="UGq73vawDLnYW-L7hYSb-28" value="&lt;font color=&quot;#ffffff&quot; style=&quot;font-size: 16px;&quot;&gt;Writing the response message into iove.c&lt;/font&gt;" style="rounded=1;whiteSpace=wrap;html=1;labelBackgroundColor=none;fontSize=16;fontColor=#FF3399;fontStyle=1" parent="Jjdm6nXYkdeICC_VZasA-1" vertex="1">
                    <mxGeometry x="1652" y="175" width="100" height="120" as="geometry"/>
                </mxCell>
                <mxCell id="PJ7CUUwKFl2socQLG_yQ-5" style="edgeStyle=none;html=1;exitX=0;exitY=0.5;exitDx=0;exitDy=0;entryX=0.5;entryY=1;entryDx=0;entryDy=0;fontSize=19;fontColor=#FFFFFF;strokeWidth=4;" parent="Jjdm6nXYkdeICC_VZasA-1" source="PJ7CUUwKFl2socQLG_yQ-1" target="IOTEVv5gJBbN5gHot6_p-2" edge="1">
                    <mxGeometry relative="1" as="geometry">
                        <Array as="points">
                            <mxPoint x="325" y="500"/>
                        </Array>
                    </mxGeometry>
                </mxCell>
                <mxCell id="PJ7CUUwKFl2socQLG_yQ-1" value="write()" style="whiteSpace=wrap;html=1;fontSize=19;fontColor=#FFFFFF;rounded=1;labelBackgroundColor=none;fontStyle=1" parent="Jjdm6nXYkdeICC_VZasA-1" vertex="1">
                    <mxGeometry x="1642" y="470" width="120" height="60" as="geometry"/>
                </mxCell>
                <mxCell id="PJ7CUUwKFl2socQLG_yQ-3" value="&lt;font color=&quot;#ff8000&quot; style=&quot;font-size: 18px&quot;&gt;Main Threads&lt;/font&gt;" style="text;html=1;strokeColor=none;fillColor=none;align=center;verticalAlign=middle;whiteSpace=wrap;rounded=0;fontSize=16;fontStyle=1" parent="Jjdm6nXYkdeICC_VZasA-1" vertex="1">
                    <mxGeometry x="1602" y="320" width="220" height="30" as="geometry"/>
                </mxCell>
                <mxCell id="PJ7CUUwKFl2socQLG_yQ-4" value="&lt;span style=&quot;font-size: 16px;&quot;&gt;Reading the request message&lt;/span&gt;" style="text;html=1;strokeColor=none;fillColor=none;align=center;verticalAlign=middle;whiteSpace=wrap;rounded=0;fontSize=16;fontStyle=1" parent="Jjdm6nXYkdeICC_VZasA-1" vertex="1">
                    <mxGeometry x="1627" y="360" width="150" height="30" as="geometry"/>
                </mxCell>
                <mxCell id="PJ7CUUwKFl2socQLG_yQ-7" value="&lt;font color=&quot;#ff8000&quot; style=&quot;font-size: 24px&quot;&gt;Main Threads&lt;/font&gt;" style="text;html=1;strokeColor=none;fillColor=none;align=center;verticalAlign=middle;whiteSpace=wrap;rounded=0;fontSize=16;fontStyle=1" parent="Jjdm6nXYkdeICC_VZasA-1" vertex="1">
                    <mxGeometry x="937" y="460" width="220" height="30" as="geometry"/>
                </mxCell>
                <mxCell id="PJ7CUUwKFl2socQLG_yQ-9" value="&lt;span style=&quot;font-size: 24px&quot;&gt;&lt;font color=&quot;#ffffff&quot;&gt;Sending Response message&lt;/font&gt;&lt;/span&gt;" style="text;html=1;strokeColor=none;fillColor=none;align=center;verticalAlign=middle;whiteSpace=wrap;rounded=0;fontSize=16;fontStyle=1" parent="Jjdm6nXYkdeICC_VZasA-1" vertex="1">
                    <mxGeometry x="877" y="520" width="360" height="30" as="geometry"/>
                </mxCell>
            </root>
        </mxGraphModel>
    </diagram>
    <diagram id="0jmrsryC1ygPL4t2jn_3" name="HTTP_Do_Process">
        <mxGraphModel dx="1610" dy="1838" grid="1" gridSize="10" guides="1" tooltips="1" connect="1" arrows="1" fold="1" page="1" pageScale="1" pageWidth="850" pageHeight="1100" math="0" shadow="0">
            <root>
                <mxCell id="7ubmVnbmZhZ2FLz9tcd4-0"/>
                <mxCell id="7ubmVnbmZhZ2FLz9tcd4-1" parent="7ubmVnbmZhZ2FLz9tcd4-0"/>
                <mxCell id="7ubmVnbmZhZ2FLz9tcd4-7" value="" style="edgeStyle=none;html=1;fontSize=14;" parent="7ubmVnbmZhZ2FLz9tcd4-1" source="7ubmVnbmZhZ2FLz9tcd4-2" target="7ubmVnbmZhZ2FLz9tcd4-6" edge="1">
                    <mxGeometry relative="1" as="geometry"/>
                </mxCell>
                <mxCell id="7ubmVnbmZhZ2FLz9tcd4-2" value="" style="rounded=1;whiteSpace=wrap;html=1;fontSize=14;" parent="7ubmVnbmZhZ2FLz9tcd4-1" vertex="1">
                    <mxGeometry x="131" y="70" width="120" height="100" as="geometry"/>
                </mxCell>
                <mxCell id="7ubmVnbmZhZ2FLz9tcd4-3" value="Browser" style="text;html=1;strokeColor=none;fillColor=none;align=center;verticalAlign=middle;whiteSpace=wrap;rounded=0;fontSize=14;" parent="7ubmVnbmZhZ2FLz9tcd4-1" vertex="1">
                    <mxGeometry x="161" y="80" width="60" height="30" as="geometry"/>
                </mxCell>
                <mxCell id="7ubmVnbmZhZ2FLz9tcd4-4" value="HTTP Request&lt;br style=&quot;font-size: 14px;&quot;&gt;Message" style="rounded=1;whiteSpace=wrap;html=1;fontSize=14;" parent="7ubmVnbmZhZ2FLz9tcd4-1" vertex="1">
                    <mxGeometry x="141" y="120" width="100" height="40" as="geometry"/>
                </mxCell>
                <mxCell id="7ubmVnbmZhZ2FLz9tcd4-11" style="edgeStyle=none;html=1;exitX=1;exitY=0.5;exitDx=0;exitDy=0;entryX=0;entryY=0.5;entryDx=0;entryDy=0;fontSize=14;" parent="7ubmVnbmZhZ2FLz9tcd4-1" source="7ubmVnbmZhZ2FLz9tcd4-6" target="7ubmVnbmZhZ2FLz9tcd4-10" edge="1">
                    <mxGeometry relative="1" as="geometry">
                        <Array as="points">
                            <mxPoint x="450" y="120"/>
                            <mxPoint x="450"/>
                        </Array>
                    </mxGeometry>
                </mxCell>
                <mxCell id="7ubmVnbmZhZ2FLz9tcd4-34" style="edgeStyle=none;html=1;exitX=1;exitY=0.5;exitDx=0;exitDy=0;entryX=0;entryY=0.5;entryDx=0;entryDy=0;fontSize=14;" parent="7ubmVnbmZhZ2FLz9tcd4-1" source="7ubmVnbmZhZ2FLz9tcd4-6" target="7ubmVnbmZhZ2FLz9tcd4-33" edge="1">
                    <mxGeometry relative="1" as="geometry">
                        <Array as="points">
                            <mxPoint x="450" y="120"/>
                            <mxPoint x="450" y="274"/>
                        </Array>
                    </mxGeometry>
                </mxCell>
                <mxCell id="7ubmVnbmZhZ2FLz9tcd4-6" value="m_url" style="whiteSpace=wrap;html=1;rounded=1;fontSize=14;" parent="7ubmVnbmZhZ2FLz9tcd4-1" vertex="1">
                    <mxGeometry x="331" y="90" width="95" height="60" as="geometry"/>
                </mxCell>
                <mxCell id="7ubmVnbmZhZ2FLz9tcd4-9" value="Parsing Message" style="text;html=1;strokeColor=none;fillColor=none;align=center;verticalAlign=middle;whiteSpace=wrap;rounded=0;fontSize=14;" parent="7ubmVnbmZhZ2FLz9tcd4-1" vertex="1">
                    <mxGeometry x="237" y="100" width="110" height="30" as="geometry"/>
                </mxCell>
                <mxCell id="7ubmVnbmZhZ2FLz9tcd4-15" style="edgeStyle=none;html=1;exitX=1;exitY=0.25;exitDx=0;exitDy=0;entryX=0;entryY=0.5;entryDx=0;entryDy=0;fontSize=14;" parent="7ubmVnbmZhZ2FLz9tcd4-1" source="7ubmVnbmZhZ2FLz9tcd4-10" target="7ubmVnbmZhZ2FLz9tcd4-12" edge="1">
                    <mxGeometry relative="1" as="geometry">
                        <Array as="points">
                            <mxPoint x="660" y="-15"/>
                            <mxPoint x="660" y="-85"/>
                        </Array>
                    </mxGeometry>
                </mxCell>
                <mxCell id="7ubmVnbmZhZ2FLz9tcd4-19" style="edgeStyle=none;html=1;exitX=1;exitY=0.75;exitDx=0;exitDy=0;entryX=0;entryY=0.5;entryDx=0;entryDy=0;fontSize=14;" parent="7ubmVnbmZhZ2FLz9tcd4-1" source="7ubmVnbmZhZ2FLz9tcd4-10" target="7ubmVnbmZhZ2FLz9tcd4-17" edge="1">
                    <mxGeometry relative="1" as="geometry">
                        <Array as="points">
                            <mxPoint x="660" y="15"/>
                            <mxPoint x="660" y="70"/>
                        </Array>
                    </mxGeometry>
                </mxCell>
                <mxCell id="7ubmVnbmZhZ2FLz9tcd4-10" value="GET" style="rounded=1;whiteSpace=wrap;html=1;fontSize=14;" parent="7ubmVnbmZhZ2FLz9tcd4-1" vertex="1">
                    <mxGeometry x="490" y="-30" width="120" height="60" as="geometry"/>
                </mxCell>
                <mxCell id="7ubmVnbmZhZ2FLz9tcd4-14" value="" style="edgeStyle=none;html=1;startArrow=none;exitX=1;exitY=0.5;exitDx=0;exitDy=0;fontSize=14;" parent="7ubmVnbmZhZ2FLz9tcd4-1" source="7ubmVnbmZhZ2FLz9tcd4-12" target="7ubmVnbmZhZ2FLz9tcd4-13" edge="1">
                    <mxGeometry relative="1" as="geometry">
                        <mxPoint x="800" y="-170" as="sourcePoint"/>
                    </mxGeometry>
                </mxCell>
                <mxCell id="7ubmVnbmZhZ2FLz9tcd4-12" value="0" style="rounded=1;whiteSpace=wrap;html=1;fontSize=14;" parent="7ubmVnbmZhZ2FLz9tcd4-1" vertex="1">
                    <mxGeometry x="682" y="-100" width="60" height="30" as="geometry"/>
                </mxCell>
                <mxCell id="7ubmVnbmZhZ2FLz9tcd4-25" style="edgeStyle=none;html=1;exitX=1;exitY=0.5;exitDx=0;exitDy=0;entryX=0.5;entryY=0;entryDx=0;entryDy=0;fontSize=14;" parent="7ubmVnbmZhZ2FLz9tcd4-1" source="7ubmVnbmZhZ2FLz9tcd4-13" target="7ubmVnbmZhZ2FLz9tcd4-24" edge="1">
                    <mxGeometry relative="1" as="geometry">
                        <Array as="points">
                            <mxPoint x="1292" y="-85"/>
                        </Array>
                    </mxGeometry>
                </mxCell>
                <mxCell id="7ubmVnbmZhZ2FLz9tcd4-13" value="register.html" style="whiteSpace=wrap;html=1;rounded=1;fontSize=14;" parent="7ubmVnbmZhZ2FLz9tcd4-1" vertex="1">
                    <mxGeometry x="825" y="-115" width="120" height="60" as="geometry"/>
                </mxCell>
                <mxCell id="7ubmVnbmZhZ2FLz9tcd4-16" value="" style="edgeStyle=none;html=1;fontSize=14;" parent="7ubmVnbmZhZ2FLz9tcd4-1" source="7ubmVnbmZhZ2FLz9tcd4-17" target="7ubmVnbmZhZ2FLz9tcd4-18" edge="1">
                    <mxGeometry relative="1" as="geometry"/>
                </mxCell>
                <mxCell id="7ubmVnbmZhZ2FLz9tcd4-17" value="1" style="rounded=1;whiteSpace=wrap;html=1;fontSize=14;" parent="7ubmVnbmZhZ2FLz9tcd4-1" vertex="1">
                    <mxGeometry x="681" y="55" width="60" height="30" as="geometry"/>
                </mxCell>
                <mxCell id="7ubmVnbmZhZ2FLz9tcd4-43" style="edgeStyle=none;html=1;exitX=1;exitY=0.5;exitDx=0;exitDy=0;entryX=0;entryY=0.25;entryDx=0;entryDy=0;fontSize=14;" parent="7ubmVnbmZhZ2FLz9tcd4-1" source="7ubmVnbmZhZ2FLz9tcd4-18" target="7ubmVnbmZhZ2FLz9tcd4-41" edge="1">
                    <mxGeometry relative="1" as="geometry">
                        <Array as="points">
                            <mxPoint x="990" y="70"/>
                            <mxPoint x="990" y="106"/>
                        </Array>
                    </mxGeometry>
                </mxCell>
                <mxCell id="7ubmVnbmZhZ2FLz9tcd4-18" value="log.html" style="whiteSpace=wrap;html=1;rounded=1;fontSize=14;" parent="7ubmVnbmZhZ2FLz9tcd4-1" vertex="1">
                    <mxGeometry x="824" y="40" width="120" height="60" as="geometry"/>
                </mxCell>
                <mxCell id="7ubmVnbmZhZ2FLz9tcd4-22" value="Registering" style="text;html=1;strokeColor=none;fillColor=none;align=center;verticalAlign=middle;whiteSpace=wrap;rounded=0;fontSize=14;" parent="7ubmVnbmZhZ2FLz9tcd4-1" vertex="1">
                    <mxGeometry x="730" y="-115" width="110" height="30" as="geometry"/>
                </mxCell>
                <mxCell id="7ubmVnbmZhZ2FLz9tcd4-23" value="Signing in" style="text;html=1;strokeColor=none;fillColor=none;align=center;verticalAlign=middle;whiteSpace=wrap;rounded=0;fontSize=14;" parent="7ubmVnbmZhZ2FLz9tcd4-1" vertex="1">
                    <mxGeometry x="730" y="40" width="110" height="30" as="geometry"/>
                </mxCell>
                <mxCell id="7ubmVnbmZhZ2FLz9tcd4-27" style="edgeStyle=none;html=1;exitX=1;exitY=0.25;exitDx=0;exitDy=0;entryX=0;entryY=0.5;entryDx=0;entryDy=0;fontSize=14;" parent="7ubmVnbmZhZ2FLz9tcd4-1" source="7ubmVnbmZhZ2FLz9tcd4-24" target="7ubmVnbmZhZ2FLz9tcd4-26" edge="1">
                    <mxGeometry relative="1" as="geometry"/>
                </mxCell>
                <mxCell id="7ubmVnbmZhZ2FLz9tcd4-29" style="edgeStyle=none;html=1;exitX=1;exitY=0.75;exitDx=0;exitDy=0;entryX=0;entryY=0.5;entryDx=0;entryDy=0;fontSize=14;" parent="7ubmVnbmZhZ2FLz9tcd4-1" source="7ubmVnbmZhZ2FLz9tcd4-24" target="7ubmVnbmZhZ2FLz9tcd4-28" edge="1">
                    <mxGeometry relative="1" as="geometry"/>
                </mxCell>
                <mxCell id="7ubmVnbmZhZ2FLz9tcd4-24" value="Check" style="whiteSpace=wrap;html=1;rounded=1;fontSize=14;fillColor=#1ba1e2;fontColor=#ffffff;strokeColor=#006EAF;" parent="7ubmVnbmZhZ2FLz9tcd4-1" vertex="1">
                    <mxGeometry x="1257" y="40" width="70" height="35" as="geometry"/>
                </mxCell>
                <mxCell id="7ubmVnbmZhZ2FLz9tcd4-26" value="log.html" style="whiteSpace=wrap;html=1;rounded=1;fontSize=14;" parent="7ubmVnbmZhZ2FLz9tcd4-1" vertex="1">
                    <mxGeometry x="1393" y="-20" width="70" height="35" as="geometry"/>
                </mxCell>
                <mxCell id="7ubmVnbmZhZ2FLz9tcd4-28" value="RegisterError.html" style="whiteSpace=wrap;html=1;rounded=1;fontSize=14;" parent="7ubmVnbmZhZ2FLz9tcd4-1" vertex="1">
                    <mxGeometry x="1393" y="113" width="110" height="35" as="geometry"/>
                </mxCell>
                <mxCell id="7ubmVnbmZhZ2FLz9tcd4-30" value="Successfully" style="text;html=1;strokeColor=none;fillColor=none;align=center;verticalAlign=middle;whiteSpace=wrap;rounded=0;fontSize=14;" parent="7ubmVnbmZhZ2FLz9tcd4-1" vertex="1">
                    <mxGeometry x="1313" y="10" width="110" height="30" as="geometry"/>
                </mxCell>
                <mxCell id="7ubmVnbmZhZ2FLz9tcd4-31" value="Fail" style="text;html=1;strokeColor=none;fillColor=none;align=center;verticalAlign=middle;whiteSpace=wrap;rounded=0;fontSize=14;" parent="7ubmVnbmZhZ2FLz9tcd4-1" vertex="1">
                    <mxGeometry x="1303" y="80" width="110" height="30" as="geometry"/>
                </mxCell>
                <mxCell id="7ubmVnbmZhZ2FLz9tcd4-36" value="" style="edgeStyle=none;html=1;fontSize=14;" parent="7ubmVnbmZhZ2FLz9tcd4-1" source="7ubmVnbmZhZ2FLz9tcd4-33" target="7ubmVnbmZhZ2FLz9tcd4-35" edge="1">
                    <mxGeometry relative="1" as="geometry"/>
                </mxCell>
                <mxCell id="7ubmVnbmZhZ2FLz9tcd4-58" value="" style="edgeStyle=none;html=1;entryX=0;entryY=0.5;entryDx=0;entryDy=0;fontSize=14;" parent="7ubmVnbmZhZ2FLz9tcd4-1" source="7ubmVnbmZhZ2FLz9tcd4-33" target="7ubmVnbmZhZ2FLz9tcd4-60" edge="1">
                    <mxGeometry relative="1" as="geometry">
                        <mxPoint x="715" y="440" as="targetPoint"/>
                        <Array as="points">
                            <mxPoint x="550" y="440"/>
                        </Array>
                    </mxGeometry>
                </mxCell>
                <mxCell id="7ubmVnbmZhZ2FLz9tcd4-33" value="POST" style="rounded=1;whiteSpace=wrap;html=1;fontSize=14;" parent="7ubmVnbmZhZ2FLz9tcd4-1" vertex="1">
                    <mxGeometry x="490" y="244" width="120" height="60" as="geometry"/>
                </mxCell>
                <mxCell id="7ubmVnbmZhZ2FLz9tcd4-39" style="edgeStyle=none;html=1;exitX=1;exitY=0.5;exitDx=0;exitDy=0;entryX=0;entryY=0.5;entryDx=0;entryDy=0;fontSize=14;" parent="7ubmVnbmZhZ2FLz9tcd4-1" source="7ubmVnbmZhZ2FLz9tcd4-35" target="7ubmVnbmZhZ2FLz9tcd4-38" edge="1">
                    <mxGeometry relative="1" as="geometry">
                        <Array as="points">
                            <mxPoint x="860" y="274"/>
                            <mxPoint x="860" y="185"/>
                        </Array>
                    </mxGeometry>
                </mxCell>
                <mxCell id="7ubmVnbmZhZ2FLz9tcd4-53" style="edgeStyle=none;html=1;exitX=1;exitY=0.5;exitDx=0;exitDy=0;entryX=0;entryY=0.5;entryDx=0;entryDy=0;fontSize=14;" parent="7ubmVnbmZhZ2FLz9tcd4-1" source="7ubmVnbmZhZ2FLz9tcd4-35" target="7ubmVnbmZhZ2FLz9tcd4-52" edge="1">
                    <mxGeometry relative="1" as="geometry"/>
                </mxCell>
                <mxCell id="7ubmVnbmZhZ2FLz9tcd4-35" value="UserName&lt;br style=&quot;font-size: 14px;&quot;&gt;PassWord" style="whiteSpace=wrap;html=1;rounded=1;fontSize=14;" parent="7ubmVnbmZhZ2FLz9tcd4-1" vertex="1">
                    <mxGeometry x="715" y="244" width="120" height="60" as="geometry"/>
                </mxCell>
                <mxCell id="7ubmVnbmZhZ2FLz9tcd4-37" value="Message Content" style="text;html=1;strokeColor=none;fillColor=none;align=center;verticalAlign=middle;whiteSpace=wrap;rounded=0;fontSize=14;" parent="7ubmVnbmZhZ2FLz9tcd4-1" vertex="1">
                    <mxGeometry x="610" y="250" width="110" height="30" as="geometry"/>
                </mxCell>
                <mxCell id="7ubmVnbmZhZ2FLz9tcd4-42" style="edgeStyle=none;html=1;exitX=1;exitY=0.5;exitDx=0;exitDy=0;entryX=0;entryY=0.75;entryDx=0;entryDy=0;fontSize=14;" parent="7ubmVnbmZhZ2FLz9tcd4-1" source="7ubmVnbmZhZ2FLz9tcd4-38" target="7ubmVnbmZhZ2FLz9tcd4-41" edge="1">
                    <mxGeometry relative="1" as="geometry">
                        <Array as="points">
                            <mxPoint x="1000" y="124"/>
                        </Array>
                    </mxGeometry>
                </mxCell>
                <mxCell id="7ubmVnbmZhZ2FLz9tcd4-38" value="2" style="rounded=1;whiteSpace=wrap;html=1;fontSize=14;" parent="7ubmVnbmZhZ2FLz9tcd4-1" vertex="1">
                    <mxGeometry x="940" y="170" width="60" height="30" as="geometry"/>
                </mxCell>
                <mxCell id="7ubmVnbmZhZ2FLz9tcd4-40" value="Sign Check" style="text;html=1;strokeColor=none;fillColor=none;align=center;verticalAlign=middle;whiteSpace=wrap;rounded=0;fontSize=14;" parent="7ubmVnbmZhZ2FLz9tcd4-1" vertex="1">
                    <mxGeometry x="847" y="160" width="110" height="30" as="geometry"/>
                </mxCell>
                <mxCell id="7ubmVnbmZhZ2FLz9tcd4-45" style="edgeStyle=none;html=1;exitX=1;exitY=0.25;exitDx=0;exitDy=0;entryX=0;entryY=0.5;entryDx=0;entryDy=0;fontSize=14;" parent="7ubmVnbmZhZ2FLz9tcd4-1" source="7ubmVnbmZhZ2FLz9tcd4-41" target="7ubmVnbmZhZ2FLz9tcd4-44" edge="1">
                    <mxGeometry relative="1" as="geometry"/>
                </mxCell>
                <mxCell id="7ubmVnbmZhZ2FLz9tcd4-49" style="edgeStyle=none;html=1;exitX=1;exitY=0.75;exitDx=0;exitDy=0;entryX=0;entryY=0.5;entryDx=0;entryDy=0;fontSize=14;" parent="7ubmVnbmZhZ2FLz9tcd4-1" source="7ubmVnbmZhZ2FLz9tcd4-41" target="7ubmVnbmZhZ2FLz9tcd4-48" edge="1">
                    <mxGeometry relative="1" as="geometry"/>
                </mxCell>
                <mxCell id="7ubmVnbmZhZ2FLz9tcd4-41" value="Check" style="whiteSpace=wrap;html=1;rounded=1;fontSize=14;fillColor=#1ba1e2;fontColor=#ffffff;strokeColor=#006EAF;" parent="7ubmVnbmZhZ2FLz9tcd4-1" vertex="1">
                    <mxGeometry x="1040" y="97.5" width="70" height="35" as="geometry"/>
                </mxCell>
                <mxCell id="7ubmVnbmZhZ2FLz9tcd4-44" value="Welcome.html" style="whiteSpace=wrap;html=1;rounded=1;fontSize=14;" parent="7ubmVnbmZhZ2FLz9tcd4-1" vertex="1">
                    <mxGeometry x="1140" y="40" width="90" height="35" as="geometry"/>
                </mxCell>
                <mxCell id="7ubmVnbmZhZ2FLz9tcd4-47" value="Successfully" style="text;html=1;strokeColor=none;fillColor=none;align=center;verticalAlign=middle;whiteSpace=wrap;rounded=0;fontSize=14;" parent="7ubmVnbmZhZ2FLz9tcd4-1" vertex="1">
                    <mxGeometry x="1070" y="67.5" width="110" height="30" as="geometry"/>
                </mxCell>
                <mxCell id="7ubmVnbmZhZ2FLz9tcd4-48" value="logError.html" style="whiteSpace=wrap;html=1;rounded=1;fontSize=14;" parent="7ubmVnbmZhZ2FLz9tcd4-1" vertex="1">
                    <mxGeometry x="1140" y="140" width="90" height="35" as="geometry"/>
                </mxCell>
                <mxCell id="7ubmVnbmZhZ2FLz9tcd4-50" value="Fail" style="text;html=1;strokeColor=none;fillColor=none;align=center;verticalAlign=middle;whiteSpace=wrap;rounded=0;fontSize=14;" parent="7ubmVnbmZhZ2FLz9tcd4-1" vertex="1">
                    <mxGeometry x="1070" y="115.5" width="110" height="30" as="geometry"/>
                </mxCell>
                <mxCell id="7ubmVnbmZhZ2FLz9tcd4-56" style="edgeStyle=none;html=1;exitX=1;exitY=0.5;exitDx=0;exitDy=0;entryX=0.5;entryY=1;entryDx=0;entryDy=0;fontSize=14;" parent="7ubmVnbmZhZ2FLz9tcd4-1" source="7ubmVnbmZhZ2FLz9tcd4-52" target="7ubmVnbmZhZ2FLz9tcd4-24" edge="1">
                    <mxGeometry relative="1" as="geometry">
                        <Array as="points">
                            <mxPoint x="1292" y="274"/>
                        </Array>
                    </mxGeometry>
                </mxCell>
                <mxCell id="7ubmVnbmZhZ2FLz9tcd4-52" value="3" style="rounded=1;whiteSpace=wrap;html=1;fontSize=14;" parent="7ubmVnbmZhZ2FLz9tcd4-1" vertex="1">
                    <mxGeometry x="1090" y="259" width="60" height="30" as="geometry"/>
                </mxCell>
                <mxCell id="7ubmVnbmZhZ2FLz9tcd4-55" value="Register Check" style="text;html=1;strokeColor=none;fillColor=none;align=center;verticalAlign=middle;whiteSpace=wrap;rounded=0;fontSize=14;" parent="7ubmVnbmZhZ2FLz9tcd4-1" vertex="1">
                    <mxGeometry x="900" y="244" width="110" height="30" as="geometry"/>
                </mxCell>
                <mxCell id="7ubmVnbmZhZ2FLz9tcd4-59" value="ToWelcome.html" style="text;html=1;strokeColor=none;fillColor=none;align=center;verticalAlign=middle;whiteSpace=wrap;rounded=0;fontSize=14;" parent="7ubmVnbmZhZ2FLz9tcd4-1" vertex="1">
                    <mxGeometry x="571" y="410" width="110" height="30" as="geometry"/>
                </mxCell>
                <mxCell id="7ubmVnbmZhZ2FLz9tcd4-64" style="edgeStyle=none;html=1;exitX=1;exitY=0;exitDx=0;exitDy=0;entryX=0;entryY=0.5;entryDx=0;entryDy=0;fontSize=14;" parent="7ubmVnbmZhZ2FLz9tcd4-1" source="7ubmVnbmZhZ2FLz9tcd4-60" target="7ubmVnbmZhZ2FLz9tcd4-63" edge="1">
                    <mxGeometry relative="1" as="geometry">
                        <Array as="points">
                            <mxPoint x="799" y="385"/>
                        </Array>
                    </mxGeometry>
                </mxCell>
                <mxCell id="7ubmVnbmZhZ2FLz9tcd4-67" style="edgeStyle=none;html=1;exitX=1;exitY=0.5;exitDx=0;exitDy=0;entryX=0;entryY=0.5;entryDx=0;entryDy=0;fontSize=14;" parent="7ubmVnbmZhZ2FLz9tcd4-1" source="7ubmVnbmZhZ2FLz9tcd4-60" target="7ubmVnbmZhZ2FLz9tcd4-66" edge="1">
                    <mxGeometry relative="1" as="geometry"/>
                </mxCell>
                <mxCell id="7ubmVnbmZhZ2FLz9tcd4-69" style="edgeStyle=none;html=1;exitX=1;exitY=1;exitDx=0;exitDy=0;entryX=0;entryY=0.75;entryDx=0;entryDy=0;fontSize=14;" parent="7ubmVnbmZhZ2FLz9tcd4-1" source="7ubmVnbmZhZ2FLz9tcd4-60" target="7ubmVnbmZhZ2FLz9tcd4-68" edge="1">
                    <mxGeometry relative="1" as="geometry">
                        <Array as="points">
                            <mxPoint x="799" y="503"/>
                        </Array>
                    </mxGeometry>
                </mxCell>
                <mxCell id="7ubmVnbmZhZ2FLz9tcd4-60" value="Check" style="ellipse;whiteSpace=wrap;html=1;aspect=fixed;fontSize=14;fillColor=#1ba1e2;fontColor=#ffffff;strokeColor=#006EAF;" parent="7ubmVnbmZhZ2FLz9tcd4-1" vertex="1">
                    <mxGeometry x="731" y="400" width="80" height="80" as="geometry"/>
                </mxCell>
                <mxCell id="7ubmVnbmZhZ2FLz9tcd4-71" value="" style="edgeStyle=none;html=1;fontSize=14;" parent="7ubmVnbmZhZ2FLz9tcd4-1" source="7ubmVnbmZhZ2FLz9tcd4-63" target="7ubmVnbmZhZ2FLz9tcd4-70" edge="1">
                    <mxGeometry relative="1" as="geometry"/>
                </mxCell>
                <mxCell id="7ubmVnbmZhZ2FLz9tcd4-63" value="5" style="rounded=1;whiteSpace=wrap;html=1;arcSize=0;fontSize=14;" parent="7ubmVnbmZhZ2FLz9tcd4-1" vertex="1">
                    <mxGeometry x="855" y="370" width="60" height="30" as="geometry"/>
                </mxCell>
                <mxCell id="7ubmVnbmZhZ2FLz9tcd4-74" style="edgeStyle=none;html=1;exitX=1;exitY=0.5;exitDx=0;exitDy=0;entryX=0;entryY=0.5;entryDx=0;entryDy=0;fontSize=14;" parent="7ubmVnbmZhZ2FLz9tcd4-1" source="7ubmVnbmZhZ2FLz9tcd4-66" target="7ubmVnbmZhZ2FLz9tcd4-73" edge="1">
                    <mxGeometry relative="1" as="geometry"/>
                </mxCell>
                <mxCell id="7ubmVnbmZhZ2FLz9tcd4-66" value="6" style="rounded=1;whiteSpace=wrap;html=1;arcSize=0;fontSize=14;" parent="7ubmVnbmZhZ2FLz9tcd4-1" vertex="1">
                    <mxGeometry x="854" y="425" width="60" height="30" as="geometry"/>
                </mxCell>
                <mxCell id="7ubmVnbmZhZ2FLz9tcd4-77" style="edgeStyle=none;html=1;exitX=1;exitY=0.5;exitDx=0;exitDy=0;entryX=0;entryY=0.5;entryDx=0;entryDy=0;fontSize=14;" parent="7ubmVnbmZhZ2FLz9tcd4-1" source="7ubmVnbmZhZ2FLz9tcd4-68" target="7ubmVnbmZhZ2FLz9tcd4-76" edge="1">
                    <mxGeometry relative="1" as="geometry"/>
                </mxCell>
                <mxCell id="7ubmVnbmZhZ2FLz9tcd4-68" value="7" style="rounded=1;whiteSpace=wrap;html=1;arcSize=0;fontSize=14;" parent="7ubmVnbmZhZ2FLz9tcd4-1" vertex="1">
                    <mxGeometry x="854" y="480" width="60" height="30" as="geometry"/>
                </mxCell>
                <mxCell id="7ubmVnbmZhZ2FLz9tcd4-70" value="picture.html" style="rounded=1;whiteSpace=wrap;html=1;arcSize=0;fontSize=14;" parent="7ubmVnbmZhZ2FLz9tcd4-1" vertex="1">
                    <mxGeometry x="1050" y="370" width="100" height="30" as="geometry"/>
                </mxCell>
                <mxCell id="7ubmVnbmZhZ2FLz9tcd4-72" value="Picture" style="text;html=1;strokeColor=none;fillColor=none;align=center;verticalAlign=middle;whiteSpace=wrap;rounded=0;fontSize=14;" parent="7ubmVnbmZhZ2FLz9tcd4-1" vertex="1">
                    <mxGeometry x="930" y="360" width="110" height="30" as="geometry"/>
                </mxCell>
                <mxCell id="7ubmVnbmZhZ2FLz9tcd4-73" value="picture.html" style="rounded=1;whiteSpace=wrap;html=1;arcSize=0;fontSize=14;" parent="7ubmVnbmZhZ2FLz9tcd4-1" vertex="1">
                    <mxGeometry x="1050" y="425" width="100" height="30" as="geometry"/>
                </mxCell>
                <mxCell id="7ubmVnbmZhZ2FLz9tcd4-75" value="Video" style="text;html=1;strokeColor=none;fillColor=none;align=center;verticalAlign=middle;whiteSpace=wrap;rounded=0;fontSize=14;" parent="7ubmVnbmZhZ2FLz9tcd4-1" vertex="1">
                    <mxGeometry x="930" y="420" width="110" height="30" as="geometry"/>
                </mxCell>
                <mxCell id="7ubmVnbmZhZ2FLz9tcd4-76" value="awei.html" style="rounded=1;whiteSpace=wrap;html=1;arcSize=0;fontSize=14;" parent="7ubmVnbmZhZ2FLz9tcd4-1" vertex="1">
                    <mxGeometry x="1050" y="480" width="100" height="30" as="geometry"/>
                </mxCell>
                <mxCell id="7ubmVnbmZhZ2FLz9tcd4-78" value="AWEI" style="text;html=1;strokeColor=none;fillColor=none;align=center;verticalAlign=middle;whiteSpace=wrap;rounded=0;fontSize=14;" parent="7ubmVnbmZhZ2FLz9tcd4-1" vertex="1">
                    <mxGeometry x="930" y="470" width="110" height="30" as="geometry"/>
                </mxCell>
            </root>
        </mxGraphModel>
    </diagram>
    <diagram id="J52hqOYikMZDmPMck91q" name="LOG_Process">
        <mxGraphModel dx="805" dy="1469" grid="1" gridSize="10" guides="1" tooltips="1" connect="1" arrows="1" fold="1" page="1" pageScale="1" pageWidth="850" pageHeight="1100" math="0" shadow="0">
            <root>
                <mxCell id="xR7LGZky3uPteLsnNYhd-0"/>
                <mxCell id="xR7LGZky3uPteLsnNYhd-1" parent="xR7LGZky3uPteLsnNYhd-0"/>
                <mxCell id="xR7LGZky3uPteLsnNYhd-7" value="" style="edgeStyle=none;html=1;fontSize=14;" parent="xR7LGZky3uPteLsnNYhd-1" source="xR7LGZky3uPteLsnNYhd-2" target="xR7LGZky3uPteLsnNYhd-6" edge="1">
                    <mxGeometry relative="1" as="geometry"/>
                </mxCell>
                <mxCell id="xR7LGZky3uPteLsnNYhd-2" value="" style="rounded=1;whiteSpace=wrap;html=1;" parent="xR7LGZky3uPteLsnNYhd-1" vertex="1">
                    <mxGeometry x="218" y="120" width="160" height="160" as="geometry"/>
                </mxCell>
                <mxCell id="xR7LGZky3uPteLsnNYhd-3" value="&lt;font style=&quot;font-size: 14px&quot;&gt;Single model&lt;/font&gt;" style="text;html=1;strokeColor=none;fillColor=none;align=center;verticalAlign=middle;whiteSpace=wrap;rounded=0;" parent="xR7LGZky3uPteLsnNYhd-1" vertex="1">
                    <mxGeometry x="253" y="130" width="90" height="30" as="geometry"/>
                </mxCell>
                <mxCell id="xR7LGZky3uPteLsnNYhd-4" value="&lt;span style=&quot;font-size: 14px&quot;&gt;Getting Log instance&lt;/span&gt;" style="text;html=1;strokeColor=none;fillColor=none;align=center;verticalAlign=middle;whiteSpace=wrap;rounded=0;" parent="xR7LGZky3uPteLsnNYhd-1" vertex="1">
                    <mxGeometry x="215.5" y="160" width="165" height="30" as="geometry"/>
                </mxCell>
                <mxCell id="xR7LGZky3uPteLsnNYhd-5" value="&lt;font style=&quot;font-size: 18px&quot;&gt;get_instance()&lt;/font&gt;" style="rounded=1;whiteSpace=wrap;html=1;fontSize=14;" parent="xR7LGZky3uPteLsnNYhd-1" vertex="1">
                    <mxGeometry x="228" y="200" width="140" height="60" as="geometry"/>
                </mxCell>
                <mxCell id="xR7LGZky3uPteLsnNYhd-16" style="edgeStyle=none;html=1;exitX=1;exitY=0.25;exitDx=0;exitDy=0;entryX=0;entryY=0.5;entryDx=0;entryDy=0;fontSize=18;fontColor=#FFFFFF;" parent="xR7LGZky3uPteLsnNYhd-1" source="xR7LGZky3uPteLsnNYhd-6" target="xR7LGZky3uPteLsnNYhd-10" edge="1">
                    <mxGeometry relative="1" as="geometry"/>
                </mxCell>
                <mxCell id="xR7LGZky3uPteLsnNYhd-22" style="edgeStyle=none;html=1;exitX=1;exitY=0.75;exitDx=0;exitDy=0;entryX=0;entryY=0.5;entryDx=0;entryDy=0;fontSize=18;fontColor=#FFFFFF;" parent="xR7LGZky3uPteLsnNYhd-1" source="xR7LGZky3uPteLsnNYhd-6" target="xR7LGZky3uPteLsnNYhd-17" edge="1">
                    <mxGeometry relative="1" as="geometry"/>
                </mxCell>
                <mxCell id="xR7LGZky3uPteLsnNYhd-26" style="edgeStyle=none;html=1;exitX=1;exitY=0.5;exitDx=0;exitDy=0;entryX=0;entryY=0.5;entryDx=0;entryDy=0;fontSize=24;fontColor=#FFFFFF;strokeWidth=3;" parent="xR7LGZky3uPteLsnNYhd-1" source="xR7LGZky3uPteLsnNYhd-6" target="xR7LGZky3uPteLsnNYhd-25" edge="1">
                    <mxGeometry relative="1" as="geometry"/>
                </mxCell>
                <mxCell id="xR7LGZky3uPteLsnNYhd-6" value="&lt;font style=&quot;font-size: 24px&quot;&gt;intit()&lt;/font&gt;" style="whiteSpace=wrap;html=1;rounded=1;" parent="xR7LGZky3uPteLsnNYhd-1" vertex="1">
                    <mxGeometry x="470" y="170" width="120" height="60" as="geometry"/>
                </mxCell>
                <mxCell id="xR7LGZky3uPteLsnNYhd-8" value="&lt;font style=&quot;font-size: 18px&quot;&gt;Initializing&lt;/font&gt;" style="text;html=1;strokeColor=none;fillColor=none;align=center;verticalAlign=middle;whiteSpace=wrap;rounded=0;" parent="xR7LGZky3uPteLsnNYhd-1" vertex="1">
                    <mxGeometry x="380" y="170" width="90" height="30" as="geometry"/>
                </mxCell>
                <mxCell id="xR7LGZky3uPteLsnNYhd-10" value="" style="whiteSpace=wrap;html=1;rounded=1;" parent="xR7LGZky3uPteLsnNYhd-1" vertex="1">
                    <mxGeometry x="630" y="20" width="250" height="140" as="geometry"/>
                </mxCell>
                <mxCell id="xR7LGZky3uPteLsnNYhd-11" value="&lt;font style=&quot;font-size: 18px&quot;&gt;Write_log&lt;/font&gt;" style="text;html=1;strokeColor=none;fillColor=none;align=center;verticalAlign=middle;whiteSpace=wrap;rounded=0;" parent="xR7LGZky3uPteLsnNYhd-1" vertex="1">
                    <mxGeometry x="640" y="20" width="90" height="30" as="geometry"/>
                </mxCell>
                <mxCell id="xR7LGZky3uPteLsnNYhd-13" value="&lt;font color=&quot;#99ccff&quot;&gt;&lt;span style=&quot;font-size: 18px&quot;&gt;Asynchronous&lt;/span&gt;&lt;/font&gt;" style="text;html=1;strokeColor=none;fillColor=none;align=center;verticalAlign=middle;whiteSpace=wrap;rounded=0;" parent="xR7LGZky3uPteLsnNYhd-1" vertex="1">
                    <mxGeometry x="750" y="20" width="130" height="30" as="geometry"/>
                </mxCell>
                <mxCell id="xR7LGZky3uPteLsnNYhd-35" style="edgeStyle=none;html=1;exitX=1;exitY=0.5;exitDx=0;exitDy=0;entryX=0;entryY=0.5;entryDx=0;entryDy=0;fontSize=18;fontColor=#FF8000;strokeWidth=1;" parent="xR7LGZky3uPteLsnNYhd-1" source="xR7LGZky3uPteLsnNYhd-14" target="xR7LGZky3uPteLsnNYhd-27" edge="1">
                    <mxGeometry relative="1" as="geometry"/>
                </mxCell>
                <mxCell id="xR7LGZky3uPteLsnNYhd-14" value="&lt;font color=&quot;#ffffff&quot;&gt;Format output content&lt;/font&gt;" style="rounded=1;whiteSpace=wrap;html=1;fontSize=18;fontColor=#99CCFF;" parent="xR7LGZky3uPteLsnNYhd-1" vertex="1">
                    <mxGeometry x="640" y="108.53999999999999" width="190" height="37.09" as="geometry"/>
                </mxCell>
                <mxCell id="xR7LGZky3uPteLsnNYhd-37" style="edgeStyle=none;html=1;exitX=0.5;exitY=0;exitDx=0;exitDy=0;entryX=0.5;entryY=0;entryDx=0;entryDy=0;fontSize=18;fontColor=#FF8000;strokeWidth=1;" parent="xR7LGZky3uPteLsnNYhd-1" source="xR7LGZky3uPteLsnNYhd-15" target="xR7LGZky3uPteLsnNYhd-25" edge="1">
                    <mxGeometry relative="1" as="geometry">
                        <Array as="points">
                            <mxPoint x="745" y="-40"/>
                            <mxPoint x="1335" y="-40"/>
                        </Array>
                    </mxGeometry>
                </mxCell>
                <mxCell id="xR7LGZky3uPteLsnNYhd-15" value="&lt;font color=&quot;#ffffff&quot;&gt;Document classification&lt;/font&gt;" style="rounded=1;whiteSpace=wrap;html=1;fontSize=18;fontColor=#99CCFF;" parent="xR7LGZky3uPteLsnNYhd-1" vertex="1">
                    <mxGeometry x="640" y="60" width="210" height="37.09" as="geometry"/>
                </mxCell>
                <mxCell id="xR7LGZky3uPteLsnNYhd-17" value="" style="whiteSpace=wrap;html=1;rounded=1;" parent="xR7LGZky3uPteLsnNYhd-1" vertex="1">
                    <mxGeometry x="630" y="250" width="250" height="140" as="geometry"/>
                </mxCell>
                <mxCell id="xR7LGZky3uPteLsnNYhd-18" value="&lt;font style=&quot;font-size: 18px&quot;&gt;Write_log&lt;/font&gt;" style="text;html=1;strokeColor=none;fillColor=none;align=center;verticalAlign=middle;whiteSpace=wrap;rounded=0;" parent="xR7LGZky3uPteLsnNYhd-1" vertex="1">
                    <mxGeometry x="640" y="250" width="90" height="30" as="geometry"/>
                </mxCell>
                <mxCell id="xR7LGZky3uPteLsnNYhd-19" value="&lt;span style=&quot;font-size: 18px&quot;&gt;&lt;font color=&quot;#99ccff&quot;&gt;Synchronization&lt;/font&gt;&lt;/span&gt;" style="text;html=1;strokeColor=none;fillColor=none;align=center;verticalAlign=middle;whiteSpace=wrap;rounded=0;" parent="xR7LGZky3uPteLsnNYhd-1" vertex="1">
                    <mxGeometry x="750" y="250" width="130" height="30" as="geometry"/>
                </mxCell>
                <mxCell id="skRQZCI578aK63Nvbhme-4" style="edgeStyle=none;html=1;exitX=1;exitY=0.5;exitDx=0;exitDy=0;entryX=0;entryY=1;entryDx=0;entryDy=0;fontSize=18;fontColor=#FF8000;strokeWidth=1;" parent="xR7LGZky3uPteLsnNYhd-1" source="xR7LGZky3uPteLsnNYhd-20" target="xR7LGZky3uPteLsnNYhd-25" edge="1">
                    <mxGeometry relative="1" as="geometry">
                        <Array as="points">
                            <mxPoint x="1293" y="300"/>
                        </Array>
                    </mxGeometry>
                </mxCell>
                <mxCell id="xR7LGZky3uPteLsnNYhd-20" value="&lt;font color=&quot;#ffffff&quot;&gt;Format output content&lt;/font&gt;" style="rounded=1;whiteSpace=wrap;html=1;fontSize=18;fontColor=#99CCFF;" parent="xR7LGZky3uPteLsnNYhd-1" vertex="1">
                    <mxGeometry x="640" y="282.90999999999997" width="190" height="37.09" as="geometry"/>
                </mxCell>
                <mxCell id="xR7LGZky3uPteLsnNYhd-39" style="edgeStyle=none;html=1;exitX=0.5;exitY=1;exitDx=0;exitDy=0;entryX=0.5;entryY=1;entryDx=0;entryDy=0;fontSize=18;fontColor=#FF8000;strokeWidth=1;" parent="xR7LGZky3uPteLsnNYhd-1" source="xR7LGZky3uPteLsnNYhd-21" target="xR7LGZky3uPteLsnNYhd-25" edge="1">
                    <mxGeometry relative="1" as="geometry">
                        <Array as="points">
                            <mxPoint x="746" y="450"/>
                            <mxPoint x="1336" y="450"/>
                        </Array>
                    </mxGeometry>
                </mxCell>
                <mxCell id="xR7LGZky3uPteLsnNYhd-21" value="&lt;font color=&quot;#ffffff&quot;&gt;Document classification&lt;/font&gt;" style="rounded=1;whiteSpace=wrap;html=1;fontSize=18;fontColor=#99CCFF;" parent="xR7LGZky3uPteLsnNYhd-1" vertex="1">
                    <mxGeometry x="640" y="340" width="210" height="37.09" as="geometry"/>
                </mxCell>
                <mxCell id="xR7LGZky3uPteLsnNYhd-25" value="Log_file" style="ellipse;whiteSpace=wrap;html=1;fontSize=24;fontColor=#FFFFFF;" parent="xR7LGZky3uPteLsnNYhd-1" vertex="1">
                    <mxGeometry x="1275" y="160" width="120" height="80" as="geometry"/>
                </mxCell>
                <mxCell id="xR7LGZky3uPteLsnNYhd-30" style="edgeStyle=none;html=1;exitX=1;exitY=0.5;exitDx=0;exitDy=0;entryX=0;entryY=0;entryDx=0;entryDy=0;fontSize=18;fontColor=#FFFFFF;strokeWidth=1;" parent="xR7LGZky3uPteLsnNYhd-1" source="xR7LGZky3uPteLsnNYhd-27" target="xR7LGZky3uPteLsnNYhd-25" edge="1">
                    <mxGeometry relative="1" as="geometry">
                        <Array as="points">
                            <mxPoint x="1293" y="127"/>
                        </Array>
                    </mxGeometry>
                </mxCell>
                <mxCell id="xR7LGZky3uPteLsnNYhd-27" value="&lt;font style=&quot;font-size: 18px&quot;&gt;flush_log_thread&lt;br&gt;callback&lt;br&gt;async_write_log&lt;br&gt;&lt;/font&gt;" style="rounded=1;whiteSpace=wrap;html=1;fontSize=24;fontColor=#FFFFFF;" parent="xR7LGZky3uPteLsnNYhd-1" vertex="1">
                    <mxGeometry x="980" y="80.63" width="160" height="92.92" as="geometry"/>
                </mxCell>
                <mxCell id="xR7LGZky3uPteLsnNYhd-33" value="&lt;font color=&quot;#ff8000&quot;&gt;&lt;span style=&quot;font-size: 18px&quot;&gt;Inserting in the Blocking queue&lt;/span&gt;&lt;/font&gt;" style="text;html=1;strokeColor=none;fillColor=none;align=center;verticalAlign=middle;whiteSpace=wrap;rounded=0;" parent="xR7LGZky3uPteLsnNYhd-1" vertex="1">
                    <mxGeometry x="835" y="108.53999999999999" width="140" height="30" as="geometry"/>
                </mxCell>
                <mxCell id="xR7LGZky3uPteLsnNYhd-38" value="&lt;span style=&quot;font-size: 18px&quot;&gt;Document classification and Generating the log file&lt;/span&gt;" style="text;html=1;strokeColor=none;fillColor=none;align=center;verticalAlign=middle;whiteSpace=wrap;rounded=0;" parent="xR7LGZky3uPteLsnNYhd-1" vertex="1">
                    <mxGeometry x="810" y="-30" width="410" height="30" as="geometry"/>
                </mxCell>
                <mxCell id="skRQZCI578aK63Nvbhme-0" value="&lt;span style=&quot;font-size: 18px&quot;&gt;Document classification and Generating the log file&lt;/span&gt;" style="text;html=1;strokeColor=none;fillColor=none;align=center;verticalAlign=middle;whiteSpace=wrap;rounded=0;" parent="xR7LGZky3uPteLsnNYhd-1" vertex="1">
                    <mxGeometry x="830" y="410" width="410" height="30" as="geometry"/>
                </mxCell>
                <mxCell id="skRQZCI578aK63Nvbhme-2" value="&lt;span style=&quot;font-size: 18px&quot;&gt;Generating the log file&lt;/span&gt;" style="text;html=1;strokeColor=none;fillColor=none;align=center;verticalAlign=middle;whiteSpace=wrap;rounded=0;" parent="xR7LGZky3uPteLsnNYhd-1" vertex="1">
                    <mxGeometry x="540" y="170" width="410" height="30" as="geometry"/>
                </mxCell>
                <mxCell id="skRQZCI578aK63Nvbhme-5" value="&lt;font color=&quot;#ffffff&quot;&gt;Synchronous Direct Writint in the log file&lt;/font&gt;" style="text;html=1;strokeColor=none;fillColor=none;align=center;verticalAlign=middle;whiteSpace=wrap;rounded=0;fontSize=18;fontColor=#FF8000;" parent="xR7LGZky3uPteLsnNYhd-1" vertex="1">
                    <mxGeometry x="890" y="270" width="350" height="30" as="geometry"/>
                </mxCell>
                <mxCell id="skRQZCI578aK63Nvbhme-6" value="&lt;div&gt;&lt;br&gt;&lt;/div&gt;&lt;div&gt;&lt;br&gt;&lt;/div&gt;&lt;div&gt;Write asynchronously by the write process&lt;/div&gt;&lt;div&gt;&lt;br&gt;&lt;/div&gt;" style="text;html=1;strokeColor=none;fillColor=none;align=center;verticalAlign=middle;whiteSpace=wrap;rounded=0;fontSize=18;fontColor=#FFFFFF;" parent="xR7LGZky3uPteLsnNYhd-1" vertex="1">
                    <mxGeometry x="1150" y="85.63" width="180" height="60" as="geometry"/>
                </mxCell>
            </root>
        </mxGraphModel>
    </diagram>
    <diagram id="H8BLNEo3m9WcgOgPXn9v" name="Frame">
        <mxGraphModel dx="1200" dy="749" grid="1" gridSize="10" guides="1" tooltips="1" connect="1" arrows="1" fold="1" page="1" pageScale="1" pageWidth="850" pageHeight="1100" math="0" shadow="0">
            <root>
                <mxCell id="OPmmmhka3N-7q_uy8tg9-0"/>
                <mxCell id="OPmmmhka3N-7q_uy8tg9-1" parent="OPmmmhka3N-7q_uy8tg9-0"/>
                <mxCell id="OPmmmhka3N-7q_uy8tg9-2" value="" style="edgeStyle=orthogonalEdgeStyle;rounded=0;orthogonalLoop=1;jettySize=auto;html=1;fontSize=14;" edge="1" parent="OPmmmhka3N-7q_uy8tg9-1" source="OPmmmhka3N-7q_uy8tg9-3" target="OPmmmhka3N-7q_uy8tg9-14">
                    <mxGeometry relative="1" as="geometry"/>
                </mxCell>
                <mxCell id="OPmmmhka3N-7q_uy8tg9-3" value="" style="rounded=0;whiteSpace=wrap;html=1;fontSize=14;" vertex="1" parent="OPmmmhka3N-7q_uy8tg9-1">
                    <mxGeometry x="340" y="130" width="260" height="130" as="geometry"/>
                </mxCell>
                <mxCell id="OPmmmhka3N-7q_uy8tg9-4" value="&lt;font style=&quot;font-size: 14px;&quot;&gt;请求队列&lt;/font&gt;" style="rounded=1;whiteSpace=wrap;html=1;fontSize=14;" vertex="1" parent="OPmmmhka3N-7q_uy8tg9-1">
                    <mxGeometry x="490" y="170" width="90" height="50" as="geometry"/>
                </mxCell>
                <mxCell id="OPmmmhka3N-7q_uy8tg9-5" value="&lt;font style=&quot;font-size: 14px;&quot; color=&quot;#7ea6e0&quot;&gt;I/O处理单元&lt;/font&gt;" style="text;html=1;strokeColor=none;fillColor=none;align=center;verticalAlign=middle;whiteSpace=wrap;rounded=0;fontSize=14;" vertex="1" parent="OPmmmhka3N-7q_uy8tg9-1">
                    <mxGeometry x="360" y="185" width="130" height="20" as="geometry"/>
                </mxCell>
                <mxCell id="OPmmmhka3N-7q_uy8tg9-6" style="edgeStyle=orthogonalEdgeStyle;rounded=0;orthogonalLoop=1;jettySize=auto;html=1;exitX=0.5;exitY=1;exitDx=0;exitDy=0;entryX=0.75;entryY=0;entryDx=0;entryDy=0;fontSize=14;strokeWidth=2;strokeColor=#97D077;" edge="1" parent="OPmmmhka3N-7q_uy8tg9-1" source="OPmmmhka3N-7q_uy8tg9-7" target="OPmmmhka3N-7q_uy8tg9-34">
                    <mxGeometry relative="1" as="geometry"/>
                </mxCell>
                <mxCell id="OPmmmhka3N-7q_uy8tg9-7" value="" style="rounded=0;whiteSpace=wrap;html=1;fontSize=14;" vertex="1" parent="OPmmmhka3N-7q_uy8tg9-1">
                    <mxGeometry x="980" y="130" width="260" height="130" as="geometry"/>
                </mxCell>
                <mxCell id="OPmmmhka3N-7q_uy8tg9-8" value="&lt;font style=&quot;font-size: 14px;&quot;&gt;请求队列&lt;/font&gt;" style="rounded=1;whiteSpace=wrap;html=1;fontSize=14;" vertex="1" parent="OPmmmhka3N-7q_uy8tg9-1">
                    <mxGeometry x="1010" y="170" width="90" height="50" as="geometry"/>
                </mxCell>
                <mxCell id="OPmmmhka3N-7q_uy8tg9-9" value="&lt;font color=&quot;#7ea6e0&quot; style=&quot;font-size: 14px;&quot;&gt;&lt;span style=&quot;font-size: 14px;&quot;&gt;网络存储单元&lt;/span&gt;&lt;/font&gt;" style="text;html=1;strokeColor=none;fillColor=none;align=center;verticalAlign=middle;whiteSpace=wrap;rounded=0;fontSize=14;" vertex="1" parent="OPmmmhka3N-7q_uy8tg9-1">
                    <mxGeometry x="1100" y="185" width="130" height="15" as="geometry"/>
                </mxCell>
                <mxCell id="OPmmmhka3N-7q_uy8tg9-10" style="edgeStyle=orthogonalEdgeStyle;rounded=0;orthogonalLoop=1;jettySize=auto;html=1;exitX=1;exitY=0.5;exitDx=0;exitDy=0;entryX=0;entryY=0.5;entryDx=0;entryDy=0;fontSize=14;" edge="1" parent="OPmmmhka3N-7q_uy8tg9-1" source="OPmmmhka3N-7q_uy8tg9-12" target="OPmmmhka3N-7q_uy8tg9-7">
                    <mxGeometry relative="1" as="geometry"/>
                </mxCell>
                <mxCell id="OPmmmhka3N-7q_uy8tg9-11" style="edgeStyle=orthogonalEdgeStyle;rounded=0;orthogonalLoop=1;jettySize=auto;html=1;exitX=0;exitY=0.5;exitDx=0;exitDy=0;entryX=1;entryY=0.5;entryDx=0;entryDy=0;fontSize=14;" edge="1" parent="OPmmmhka3N-7q_uy8tg9-1" source="OPmmmhka3N-7q_uy8tg9-12" target="OPmmmhka3N-7q_uy8tg9-3">
                    <mxGeometry relative="1" as="geometry"/>
                </mxCell>
                <mxCell id="OPmmmhka3N-7q_uy8tg9-12" value="&lt;font style=&quot;font-size: 14px;&quot;&gt;逻辑处理单元&lt;/font&gt;" style="rounded=1;whiteSpace=wrap;html=1;fontSize=14;" vertex="1" parent="OPmmmhka3N-7q_uy8tg9-1">
                    <mxGeometry x="720" y="165" width="120" height="60" as="geometry"/>
                </mxCell>
                <mxCell id="OPmmmhka3N-7q_uy8tg9-13" value="" style="edgeStyle=orthogonalEdgeStyle;rounded=0;orthogonalLoop=1;jettySize=auto;html=1;fontSize=14;exitX=0.5;exitY=1;exitDx=0;exitDy=0;" edge="1" parent="OPmmmhka3N-7q_uy8tg9-1" source="OPmmmhka3N-7q_uy8tg9-19" target="OPmmmhka3N-7q_uy8tg9-24">
                    <mxGeometry relative="1" as="geometry"/>
                </mxCell>
                <mxCell id="OPmmmhka3N-7q_uy8tg9-14" value="" style="rounded=0;whiteSpace=wrap;html=1;fontSize=14;" vertex="1" parent="OPmmmhka3N-7q_uy8tg9-1">
                    <mxGeometry x="340" y="280" width="260" height="280" as="geometry"/>
                </mxCell>
                <mxCell id="OPmmmhka3N-7q_uy8tg9-15" style="edgeStyle=orthogonalEdgeStyle;rounded=0;orthogonalLoop=1;jettySize=auto;html=1;exitX=0.5;exitY=1;exitDx=0;exitDy=0;entryX=0.5;entryY=0;entryDx=0;entryDy=0;fontSize=14;" edge="1" parent="OPmmmhka3N-7q_uy8tg9-1" source="OPmmmhka3N-7q_uy8tg9-16" target="OPmmmhka3N-7q_uy8tg9-18">
                    <mxGeometry relative="1" as="geometry"/>
                </mxCell>
                <mxCell id="OPmmmhka3N-7q_uy8tg9-16" value="&lt;font style=&quot;font-size: 14px;&quot;&gt;主线程&lt;br style=&quot;font-size: 14px;&quot;&gt;epoll监听socket&lt;/font&gt;" style="rounded=0;whiteSpace=wrap;html=1;fontSize=14;" vertex="1" parent="OPmmmhka3N-7q_uy8tg9-1">
                    <mxGeometry x="410" y="290" width="120" height="60" as="geometry"/>
                </mxCell>
                <mxCell id="OPmmmhka3N-7q_uy8tg9-17" value="" style="edgeStyle=orthogonalEdgeStyle;rounded=0;orthogonalLoop=1;jettySize=auto;html=1;fontSize=14;" edge="1" parent="OPmmmhka3N-7q_uy8tg9-1" source="OPmmmhka3N-7q_uy8tg9-18" target="OPmmmhka3N-7q_uy8tg9-19">
                    <mxGeometry relative="1" as="geometry"/>
                </mxCell>
                <mxCell id="OPmmmhka3N-7q_uy8tg9-18" value="&lt;span style=&quot;font-size: 14px;&quot;&gt;请求队列(list实现，信号量唤醒任务)&lt;/span&gt;" style="rounded=0;whiteSpace=wrap;html=1;fontSize=14;" vertex="1" parent="OPmmmhka3N-7q_uy8tg9-1">
                    <mxGeometry x="350" y="390" width="240" height="60" as="geometry"/>
                </mxCell>
                <mxCell id="OPmmmhka3N-7q_uy8tg9-19" value="工作线程" style="whiteSpace=wrap;html=1;rounded=0;fontSize=14;" vertex="1" parent="OPmmmhka3N-7q_uy8tg9-1">
                    <mxGeometry x="410" y="490" width="120" height="60" as="geometry"/>
                </mxCell>
                <mxCell id="OPmmmhka3N-7q_uy8tg9-20" style="edgeStyle=orthogonalEdgeStyle;rounded=0;orthogonalLoop=1;jettySize=auto;html=1;exitX=0;exitY=0.5;exitDx=0;exitDy=0;fontSize=14;" edge="1" parent="OPmmmhka3N-7q_uy8tg9-1" source="OPmmmhka3N-7q_uy8tg9-21" target="OPmmmhka3N-7q_uy8tg9-16">
                    <mxGeometry relative="1" as="geometry"/>
                </mxCell>
                <mxCell id="OPmmmhka3N-7q_uy8tg9-21" value="同步I/O&lt;br style=&quot;font-size: 14px;&quot;&gt;异步线程" style="ellipse;whiteSpace=wrap;html=1;fontSize=14;" vertex="1" parent="OPmmmhka3N-7q_uy8tg9-1">
                    <mxGeometry x="720" y="280" width="120" height="80" as="geometry"/>
                </mxCell>
                <mxCell id="OPmmmhka3N-7q_uy8tg9-22" style="edgeStyle=orthogonalEdgeStyle;rounded=0;orthogonalLoop=1;jettySize=auto;html=1;exitX=0;exitY=0.5;exitDx=0;exitDy=0;entryX=1;entryY=0.5;entryDx=0;entryDy=0;strokeColor=#97D077;strokeWidth=2;fontSize=14;" edge="1" parent="OPmmmhka3N-7q_uy8tg9-1" source="OPmmmhka3N-7q_uy8tg9-23" target="OPmmmhka3N-7q_uy8tg9-19">
                    <mxGeometry relative="1" as="geometry"/>
                </mxCell>
                <mxCell id="OPmmmhka3N-7q_uy8tg9-23" value="逻辑单元同步线程" style="ellipse;whiteSpace=wrap;html=1;fontSize=14;" vertex="1" parent="OPmmmhka3N-7q_uy8tg9-1">
                    <mxGeometry x="730" y="480" width="120" height="80" as="geometry"/>
                </mxCell>
                <mxCell id="OPmmmhka3N-7q_uy8tg9-24" value="" style="rounded=0;whiteSpace=wrap;html=1;fontSize=14;" vertex="1" parent="OPmmmhka3N-7q_uy8tg9-1">
                    <mxGeometry x="340" y="610" width="260" height="310" as="geometry"/>
                </mxCell>
                <mxCell id="OPmmmhka3N-7q_uy8tg9-25" value="" style="edgeStyle=orthogonalEdgeStyle;rounded=0;orthogonalLoop=1;jettySize=auto;html=1;fontSize=14;" edge="1" parent="OPmmmhka3N-7q_uy8tg9-1" source="OPmmmhka3N-7q_uy8tg9-26" target="OPmmmhka3N-7q_uy8tg9-32">
                    <mxGeometry relative="1" as="geometry"/>
                </mxCell>
                <mxCell id="OPmmmhka3N-7q_uy8tg9-26" value="日志输出" style="rounded=1;whiteSpace=wrap;html=1;fontSize=14;" vertex="1" parent="OPmmmhka3N-7q_uy8tg9-1">
                    <mxGeometry x="410" y="630" width="120" height="60" as="geometry"/>
                </mxCell>
                <mxCell id="OPmmmhka3N-7q_uy8tg9-27" value="" style="edgeStyle=orthogonalEdgeStyle;rounded=0;orthogonalLoop=1;jettySize=auto;html=1;strokeWidth=1;fontSize=14;strokeColor=#FFFFFF;" edge="1" parent="OPmmmhka3N-7q_uy8tg9-1" source="OPmmmhka3N-7q_uy8tg9-28" target="OPmmmhka3N-7q_uy8tg9-36">
                    <mxGeometry relative="1" as="geometry"/>
                </mxCell>
                <mxCell id="OPmmmhka3N-7q_uy8tg9-28" value="定时器处理非活动连接" style="rounded=1;whiteSpace=wrap;html=1;fontSize=14;" vertex="1" parent="OPmmmhka3N-7q_uy8tg9-1">
                    <mxGeometry x="400" y="750" width="140" height="60" as="geometry"/>
                </mxCell>
                <mxCell id="OPmmmhka3N-7q_uy8tg9-29" value="" style="edgeStyle=orthogonalEdgeStyle;rounded=0;orthogonalLoop=1;jettySize=auto;html=1;strokeColor=#FFFFFF;strokeWidth=1;fontSize=14;entryX=0;entryY=0.25;entryDx=0;entryDy=0;" edge="1" parent="OPmmmhka3N-7q_uy8tg9-1" source="OPmmmhka3N-7q_uy8tg9-30" target="OPmmmhka3N-7q_uy8tg9-37">
                    <mxGeometry relative="1" as="geometry"/>
                </mxCell>
                <mxCell id="OPmmmhka3N-7q_uy8tg9-30" value="处理Http请求" style="rounded=1;whiteSpace=wrap;html=1;fontSize=14;" vertex="1" parent="OPmmmhka3N-7q_uy8tg9-1">
                    <mxGeometry x="400" y="840" width="140" height="60" as="geometry"/>
                </mxCell>
                <mxCell id="OPmmmhka3N-7q_uy8tg9-31" value="" style="edgeStyle=orthogonalEdgeStyle;rounded=0;orthogonalLoop=1;jettySize=auto;html=1;fontSize=14;" edge="1" parent="OPmmmhka3N-7q_uy8tg9-1" source="OPmmmhka3N-7q_uy8tg9-32" target="OPmmmhka3N-7q_uy8tg9-33">
                    <mxGeometry relative="1" as="geometry"/>
                </mxCell>
                <mxCell id="OPmmmhka3N-7q_uy8tg9-32" value="循环数组自定义队列，条件变量唤醒任务" style="rounded=1;whiteSpace=wrap;html=1;fontSize=14;" vertex="1" parent="OPmmmhka3N-7q_uy8tg9-1">
                    <mxGeometry x="680" y="630" width="220" height="60" as="geometry"/>
                </mxCell>
                <mxCell id="OPmmmhka3N-7q_uy8tg9-33" value="log文件" style="rounded=1;whiteSpace=wrap;html=1;fontSize=14;" vertex="1" parent="OPmmmhka3N-7q_uy8tg9-1">
                    <mxGeometry x="980" y="630" width="250" height="60" as="geometry"/>
                </mxCell>
                <mxCell id="OPmmmhka3N-7q_uy8tg9-34" value="" style="rounded=1;whiteSpace=wrap;html=1;fontSize=14;fillColor=none;strokeColor=#B9E0A5;" vertex="1" parent="OPmmmhka3N-7q_uy8tg9-1">
                    <mxGeometry x="370" y="580" width="890" height="130" as="geometry"/>
                </mxCell>
                <mxCell id="OPmmmhka3N-7q_uy8tg9-35" value="&lt;font style=&quot;font-size: 18px&quot; color=&quot;#ff9933&quot;&gt;同步日志系统&lt;/font&gt;" style="text;html=1;strokeColor=none;fillColor=none;align=center;verticalAlign=middle;whiteSpace=wrap;rounded=0;fontSize=14;" vertex="1" parent="OPmmmhka3N-7q_uy8tg9-1">
                    <mxGeometry x="720" y="600" width="150" height="20" as="geometry"/>
                </mxCell>
                <mxCell id="OPmmmhka3N-7q_uy8tg9-36" value="基于升序链表实现的定时器，超时进行连接断开" style="rounded=1;whiteSpace=wrap;html=1;fontSize=14;" vertex="1" parent="OPmmmhka3N-7q_uy8tg9-1">
                    <mxGeometry x="680" y="750" width="375" height="60" as="geometry"/>
                </mxCell>
                <mxCell id="OPmmmhka3N-7q_uy8tg9-37" value="" style="rounded=1;whiteSpace=wrap;html=1;fontSize=14;" vertex="1" parent="OPmmmhka3N-7q_uy8tg9-1">
                    <mxGeometry x="690" y="830" width="130" height="250" as="geometry"/>
                </mxCell>
                <mxCell id="OPmmmhka3N-7q_uy8tg9-38" value="Get" style="rounded=1;whiteSpace=wrap;html=1;strokeColor=#B9E0A5;fillColor=none;fontSize=14;" vertex="1" parent="OPmmmhka3N-7q_uy8tg9-1">
                    <mxGeometry x="720" y="880" width="70" height="40" as="geometry"/>
                </mxCell>
                <mxCell id="OPmmmhka3N-7q_uy8tg9-39" value="" style="edgeStyle=orthogonalEdgeStyle;rounded=0;orthogonalLoop=1;jettySize=auto;html=1;strokeColor=#FFFFFF;strokeWidth=1;fontSize=14;" edge="1" parent="OPmmmhka3N-7q_uy8tg9-1" source="OPmmmhka3N-7q_uy8tg9-43" target="OPmmmhka3N-7q_uy8tg9-42">
                    <mxGeometry relative="1" as="geometry"/>
                </mxCell>
                <mxCell id="OPmmmhka3N-7q_uy8tg9-40" value="Post" style="rounded=1;whiteSpace=wrap;html=1;strokeColor=#B9E0A5;fillColor=none;fontSize=14;" vertex="1" parent="OPmmmhka3N-7q_uy8tg9-1">
                    <mxGeometry x="720" y="1000" width="70" height="40" as="geometry"/>
                </mxCell>
                <mxCell id="OPmmmhka3N-7q_uy8tg9-41" style="edgeStyle=orthogonalEdgeStyle;rounded=0;orthogonalLoop=1;jettySize=auto;html=1;exitX=1;exitY=0.5;exitDx=0;exitDy=0;entryX=0;entryY=0.5;entryDx=0;entryDy=0;strokeColor=#FFFFFF;strokeWidth=1;fontSize=14;" edge="1" parent="OPmmmhka3N-7q_uy8tg9-1" source="OPmmmhka3N-7q_uy8tg9-42" target="OPmmmhka3N-7q_uy8tg9-46">
                    <mxGeometry relative="1" as="geometry"/>
                </mxCell>
                <mxCell id="OPmmmhka3N-7q_uy8tg9-42" value="CGI&lt;br&gt;&lt;br&gt;&lt;br&gt;同步" style="rounded=1;whiteSpace=wrap;html=1;fillColor=none;fontSize=14;strokeColor=#FFFFFF;" vertex="1" parent="OPmmmhka3N-7q_uy8tg9-1">
                    <mxGeometry x="940" y="950" width="70" height="140" as="geometry"/>
                </mxCell>
                <mxCell id="OPmmmhka3N-7q_uy8tg9-43" value="&lt;font style=&quot;font-size: 18px&quot;&gt;注册，登录，校验&lt;/font&gt;" style="text;html=1;strokeColor=none;fillColor=none;align=center;verticalAlign=middle;whiteSpace=wrap;rounded=0;fontSize=14;" vertex="1" parent="OPmmmhka3N-7q_uy8tg9-1">
                    <mxGeometry x="840" y="1010" width="80" height="20" as="geometry"/>
                </mxCell>
                <mxCell id="OPmmmhka3N-7q_uy8tg9-44" value="" style="edgeStyle=orthogonalEdgeStyle;rounded=0;orthogonalLoop=1;jettySize=auto;html=1;strokeColor=#FFFFFF;strokeWidth=1;fontSize=14;" edge="1" parent="OPmmmhka3N-7q_uy8tg9-1" source="OPmmmhka3N-7q_uy8tg9-40" target="OPmmmhka3N-7q_uy8tg9-43">
                    <mxGeometry relative="1" as="geometry">
                        <mxPoint x="790" y="1020" as="sourcePoint"/>
                        <mxPoint x="940" y="1020" as="targetPoint"/>
                    </mxGeometry>
                </mxCell>
                <mxCell id="OPmmmhka3N-7q_uy8tg9-45" style="edgeStyle=orthogonalEdgeStyle;rounded=0;orthogonalLoop=1;jettySize=auto;html=1;exitX=0.5;exitY=0;exitDx=0;exitDy=0;entryX=0.5;entryY=1;entryDx=0;entryDy=0;strokeColor=#FFFFFF;strokeWidth=1;fontSize=14;" edge="1" parent="OPmmmhka3N-7q_uy8tg9-1" source="OPmmmhka3N-7q_uy8tg9-46" target="OPmmmhka3N-7q_uy8tg9-48">
                    <mxGeometry relative="1" as="geometry"/>
                </mxCell>
                <mxCell id="OPmmmhka3N-7q_uy8tg9-46" value="Sql_connection_pool" style="rounded=0;whiteSpace=wrap;html=1;strokeColor=#FFFFFF;fillColor=none;fontSize=14;" vertex="1" parent="OPmmmhka3N-7q_uy8tg9-1">
                    <mxGeometry x="1100" y="990" width="150" height="60" as="geometry"/>
                </mxCell>
                <mxCell id="OPmmmhka3N-7q_uy8tg9-47" style="edgeStyle=orthogonalEdgeStyle;rounded=0;orthogonalLoop=1;jettySize=auto;html=1;exitX=0;exitY=0.5;exitDx=0;exitDy=0;entryX=1;entryY=0.5;entryDx=0;entryDy=0;strokeColor=#FFFFFF;strokeWidth=1;fontSize=14;" edge="1" parent="OPmmmhka3N-7q_uy8tg9-1" source="OPmmmhka3N-7q_uy8tg9-48" target="OPmmmhka3N-7q_uy8tg9-50">
                    <mxGeometry relative="1" as="geometry"/>
                </mxCell>
                <mxCell id="OPmmmhka3N-7q_uy8tg9-48" value="访问数据库" style="rounded=0;whiteSpace=wrap;html=1;strokeColor=#FFFFFF;fillColor=none;fontSize=14;" vertex="1" parent="OPmmmhka3N-7q_uy8tg9-1">
                    <mxGeometry x="1100" y="870" width="150" height="60" as="geometry"/>
                </mxCell>
                <mxCell id="OPmmmhka3N-7q_uy8tg9-49" style="edgeStyle=orthogonalEdgeStyle;rounded=0;orthogonalLoop=1;jettySize=auto;html=1;exitX=0;exitY=0.5;exitDx=0;exitDy=0;strokeColor=#FFFFFF;strokeWidth=1;fontSize=14;" edge="1" parent="OPmmmhka3N-7q_uy8tg9-1" source="OPmmmhka3N-7q_uy8tg9-50" target="OPmmmhka3N-7q_uy8tg9-38">
                    <mxGeometry relative="1" as="geometry"/>
                </mxCell>
                <mxCell id="OPmmmhka3N-7q_uy8tg9-50" value="客户端响应" style="rounded=0;whiteSpace=wrap;html=1;strokeColor=#FFFFFF;fillColor=none;fontSize=14;" vertex="1" parent="OPmmmhka3N-7q_uy8tg9-1">
                    <mxGeometry x="890" y="870" width="150" height="60" as="geometry"/>
                </mxCell>
                <mxCell id="OPmmmhka3N-7q_uy8tg9-51" value="" style="rounded=0;whiteSpace=wrap;html=1;fillColor=none;fontSize=14;strokeColor=#FFB570;" vertex="1" parent="OPmmmhka3N-7q_uy8tg9-1">
                    <mxGeometry x="1080" y="750" width="260" height="200" as="geometry"/>
                </mxCell>
                <mxCell id="OPmmmhka3N-7q_uy8tg9-52" value="完善SkipList" style="rounded=0;whiteSpace=wrap;html=1;strokeColor=#006EAF;fillColor=#1ba1e2;fontSize=14;fontColor=#ffffff;" vertex="1" parent="OPmmmhka3N-7q_uy8tg9-1">
                    <mxGeometry x="1115" y="780" width="120" height="60" as="geometry"/>
                </mxCell>
                <mxCell id="OPmmmhka3N-7q_uy8tg9-53" value="&lt;font style=&quot;font-size: 19px&quot;&gt;TODO&lt;/font&gt;" style="text;html=1;strokeColor=none;fillColor=none;align=center;verticalAlign=middle;whiteSpace=wrap;rounded=0;fontSize=14;" vertex="1" parent="OPmmmhka3N-7q_uy8tg9-1">
                    <mxGeometry x="1270" y="830" width="40" height="20" as="geometry"/>
                </mxCell>
            </root>
        </mxGraphModel>
    </diagram>
</mxfile>